<svg width="100" height="100" viewBox="0 0 100 100" fill="none" xmlns="http://www.w3.org/2000/svg">
<circle cx="50" cy="50" r="50" fill="#FAD049"/>
<path d="M71.2614 65.5894H81.5C83.3607 65.5894 84.875 64.0751 84.875 62.2144C84.875 60.3536 83.3607 58.8394 81.5 58.8394H80.375V56.5894C80.3752 56.327 80.2835 56.0728 80.1158 55.871C79.9481 55.6692 79.715 55.5325 79.457 55.4846L61.457 52.1096C61.3157 52.0828 61.1705 52.0836 61.0295 52.1119L50.9473 54.1279C50.3431 51.6731 48.1381 49.8394 45.5 49.8394C42.3984 49.8394 39.875 52.3627 39.875 55.4644C39.875 56.7356 40.3149 57.8966 41.0292 58.8394H37.625V37.4644C37.625 37.166 37.5065 36.8798 37.2955 36.6689C37.0845 36.4579 36.7984 36.3394 36.5 36.3394H30.875V32.9644C30.875 32.666 30.7565 32.3798 30.5455 32.1689C30.3345 31.9579 30.0484 31.8394 29.75 31.8394H16.25C15.9516 31.8394 15.6655 31.9579 15.4545 32.1689C15.2435 32.3798 15.125 32.666 15.125 32.9644V84.7144C15.125 85.0127 15.2435 85.2989 15.4545 85.5098C15.6655 85.7208 15.9516 85.8394 16.25 85.8394H83.75C84.0484 85.8394 84.3345 85.7208 84.5455 85.5098C84.7565 85.2989 84.875 85.0127 84.875 84.7144V80.2144C84.875 79.916 84.7565 79.6298 84.5455 79.4189C84.3345 79.2079 84.0484 79.0894 83.75 79.0894H66.875V69.9757C67.9547 69.753 68.9455 69.2189 69.725 68.4393C70.5045 67.6598 71.0386 66.669 71.2614 65.5894ZM65.75 67.8394H37.625V65.5894H68.918C68.6867 66.2455 68.2581 66.814 67.6909 67.2168C67.1237 67.6197 66.4457 67.8371 65.75 67.8394ZM61.2568 54.3607L78.125 57.5231V58.8394H49.9708C50.5147 58.1255 50.8779 57.2906 51.0294 56.406L61.2568 54.3607ZM42.125 55.4644C42.125 53.6036 43.6392 52.0894 45.5 52.0894C47.3607 52.0894 48.875 53.6036 48.875 55.4644C48.875 57.3251 47.3607 58.8394 45.5 58.8394C43.6392 58.8394 42.125 57.3251 42.125 55.4644ZM81.5 61.0894C81.7897 61.1023 82.0632 61.2265 82.2636 61.4361C82.464 61.6456 82.5758 61.9244 82.5758 62.2144C82.5758 62.5043 82.464 62.7831 82.2636 62.9927C82.0632 63.2022 81.7897 63.3264 81.5 63.3394H37.625V61.0894H81.5ZM37.625 75.7144V70.0894H60.125V79.0894H30.875V76.8394H36.5C36.7984 76.8394 37.0845 76.7208 37.2955 76.5098C37.5065 76.2989 37.625 76.0127 37.625 75.7144ZM28.625 79.0894H17.375V74.5894H28.625V79.0894ZM35.375 38.5894V74.5894H30.875V38.5894H35.375ZM28.625 34.0894V72.3394H17.375V34.0894H28.625ZM82.625 83.5894H17.375V81.3394H82.625V83.5894ZM62.375 79.0894V70.0894H64.625V79.0894H62.375Z" fill="#292929"/>
<path d="M19.625 36.3394H21.875V38.5894H19.625V36.3394ZM24.125 36.3394H26.375V38.5894H24.125V36.3394ZM19.625 40.8394H21.875V43.0894H19.625V40.8394ZM24.125 40.8394H26.375V43.0894H24.125V40.8394ZM83.75 16.0894H43.25C42.9516 16.0894 42.6655 16.2079 42.4545 16.4189C42.2435 16.6298 42.125 16.916 42.125 17.2144V44.2144C42.125 44.5127 42.2435 44.7989 42.4545 45.0099C42.6655 45.2208 42.9516 45.3394 43.25 45.3394H83.75C84.0484 45.3394 84.3345 45.2208 84.5455 45.0099C84.7565 44.7989 84.875 44.5127 84.875 44.2144V17.2144C84.875 16.916 84.7565 16.6298 84.5455 16.4189C84.3345 16.2079 84.0484 16.0894 83.75 16.0894ZM82.625 43.0894H44.375V18.3394H82.625V43.0894Z" fill="#292929"/>
<path d="M47.75 40.8394H79.25C79.5484 40.8394 79.8345 40.7208 80.0455 40.5099C80.2565 40.2989 80.375 40.0127 80.375 39.7144V21.7144C80.375 21.416 80.2565 21.1298 80.0455 20.9189C79.8345 20.7079 79.5484 20.5894 79.25 20.5894H47.75C47.4516 20.5894 47.1655 20.7079 46.9545 20.9189C46.7435 21.1298 46.625 21.416 46.625 21.7144V39.7144C46.625 40.0127 46.7435 40.2989 46.9545 40.5099C47.1655 40.7208 47.4516 40.8394 47.75 40.8394ZM48.875 22.8394H78.125V38.5894H48.875V22.8394Z" fill="#292929"/>
<path d="M66.8176 25.8589C66.7442 25.6383 66.6041 25.4458 66.4168 25.308C66.2294 25.1702 66.0039 25.0938 65.7714 25.0894C65.5381 25.0819 65.3084 25.1485 65.1154 25.2797C64.9223 25.4109 64.7759 25.5999 64.697 25.8196L62.438 31.8439L61.1926 28.1089C61.1219 27.898 60.9904 27.7128 60.8147 27.5764C60.6389 27.4401 60.4267 27.3588 60.2049 27.3428C59.9833 27.3289 59.7625 27.38 59.5696 27.4899C59.3767 27.5999 59.2202 27.7638 59.1192 27.9616L57.1797 31.8394H53.375V34.0894H57.875C58.3014 34.0894 58.6906 33.8487 58.8819 33.4673L59.9169 31.3962L61.3074 35.5699C61.3808 35.7906 61.5209 35.9831 61.7082 36.1209C61.8956 36.2587 62.1211 36.3351 62.3536 36.3394H62.375C62.843 36.3394 63.2638 36.0492 63.4291 35.6093L65.6881 29.5849L66.9335 33.3199C67.0078 33.5441 67.1508 33.739 67.3423 33.8772C67.5338 34.0153 67.7639 34.0896 68 34.0894H73.625V31.8394H68.8111L66.8176 25.8589Z" fill="#292929"/>
</svg>
