<svg width="100" height="100" viewBox="0 0 100 100" fill="none" xmlns="http://www.w3.org/2000/svg">
<circle cx="50" cy="50" r="50" fill="#FAD049"/>
<g clip-path="url(#clip0_296_456)">
<path d="M87.5102 52.5576L79.877 46.8983L79.8942 46.8772C81.3762 45.0239 81.0741 42.3098 79.2212 40.8274C78.4998 40.2494 77.6323 39.9249 76.7259 39.8866C77.0566 38.3262 76.5164 36.6387 75.1889 35.5767C74.2807 34.8495 73.144 34.5205 71.9881 34.6486C71.8958 34.6588 71.8044 34.672 71.7139 34.6875C71.6412 33.5031 71.088 32.3518 70.0906 31.5536V31.5531C69.1825 30.8269 68.0456 30.4973 66.8891 30.6255C66.8456 30.6306 66.8021 30.6358 66.7592 30.6421C66.7328 29.3958 66.1756 28.169 65.1284 27.3306C64.2203 26.6041 63.0835 26.2745 61.9276 26.4031C60.7718 26.5313 59.7348 27.1024 59.0081 28.0111L58.4125 28.7561C57.4592 28.232 56.3639 28.0163 55.2523 28.1438C55.0679 28.1649 54.8847 28.1955 54.7034 28.2353L53.2283 27.1412C51.6044 25.938 50.4063 24.2042 49.8546 22.2598L47.4463 13.7672C47.4378 13.7354 47.4275 13.704 47.4154 13.6733C46.8597 12.2256 45.4995 11.2672 43.9495 11.2311L34.0759 11.0006C33.4104 10.9817 32.7816 11.2941 32.3862 11.8273L31.8823 12.5073C31.7221 12.7224 31.6061 12.9671 31.5409 13.2273C31.4758 13.4874 31.4629 13.7579 31.5029 14.0231C31.5412 14.2888 31.632 14.5443 31.7701 14.7745C31.9081 15.0048 32.0905 15.2053 32.3068 15.3643L38.7126 20.1119C38.9801 20.3088 39.2059 20.5569 39.3769 20.8417C39.5478 21.1266 39.6604 21.4425 39.7082 21.7713C39.7579 22.0997 39.7419 22.4348 39.6613 22.757C39.5806 23.0793 39.4369 23.3824 39.2385 23.6488C38.4082 24.7691 36.822 25.0048 35.7017 24.1751L29.2964 19.428C29.0812 19.2677 28.8363 19.1517 28.5759 19.0866C28.3156 19.0216 28.0449 19.0089 27.7796 19.0492C27.5139 19.0878 27.2585 19.1788 27.0282 19.3169C26.7979 19.455 26.5974 19.6374 26.4382 19.8536L25.9343 20.5335C25.7398 20.7966 25.6111 21.1025 25.5591 21.4256C25.5071 21.7486 25.5333 22.0794 25.6355 22.3903L26.4663 24.9085C26.5597 25.1826 26.7575 25.4087 27.0168 25.5378C27.276 25.6668 27.5757 25.6883 27.8506 25.5976C28.1256 25.5068 28.3537 25.3112 28.4852 25.0533C28.6168 24.7953 28.6412 24.4959 28.5532 24.22L27.7475 21.7774L28.1119 21.2852L34.3932 25.9396C36.4867 27.4909 39.4525 27.0497 41.0037 24.956C41.7556 23.9422 42.0669 22.6957 41.8815 21.4472C41.6962 20.1988 41.0352 19.0972 40.0207 18.3459L33.7397 13.691L34.1042 13.1989L43.8987 13.4278C44.2106 13.4343 44.5138 13.5317 44.7713 13.7079C45.0287 13.8842 45.2291 14.1317 45.348 14.4201L47.7404 22.8589C48.4236 25.2679 49.9079 27.4155 51.9199 28.9065L52.4582 29.3054C52.1873 29.5224 51.9371 29.7642 51.711 30.0276C51.7098 30.0286 51.7087 30.0305 51.7069 30.0315C51.6921 30.0487 51.6778 30.0658 51.663 30.0835C51.6594 30.0876 51.6567 30.0916 51.6531 30.0955C51.6361 30.1157 51.6194 30.1361 51.6029 30.1568C51.5868 30.1763 51.5702 30.1963 51.5547 30.2168L48.4695 34.1256C48.4289 34.1778 48.3889 34.2304 48.3493 34.2835C48.348 34.2848 48.3468 34.2861 48.3458 34.2876C48.3282 34.3117 48.3104 34.3357 48.2931 34.3597C48.2897 34.3642 48.2858 34.3694 48.2824 34.3745C48.2669 34.3957 48.2521 34.417 48.2371 34.4381C48.2342 34.442 48.2313 34.4454 48.2291 34.4489L47.9601 34.2497C45.9483 32.7592 43.4632 31.965 40.9576 32.0118L32.1879 32.1784C31.8773 32.1487 31.5821 32.0291 31.3385 31.8342C31.0948 31.6392 30.9134 31.3775 30.8163 31.0809L30.2001 29.2133C30.1549 29.0762 30.0832 28.9494 29.989 28.84C29.8948 28.7307 29.78 28.641 29.6512 28.5761C29.5223 28.5112 29.3819 28.4723 29.238 28.4616C29.094 28.451 28.9494 28.4688 28.8124 28.5141C28.5357 28.6054 28.3067 28.8029 28.1755 29.0631C28.0444 29.3233 28.022 29.6249 28.1133 29.9016L28.7295 31.7693C28.9645 32.4871 29.4084 33.1184 30.0043 33.5824C30.6003 34.0464 31.3211 34.322 32.0746 34.3739C32.1079 34.3763 32.141 34.3774 32.1737 34.3768L40.9993 34.2091C43.018 34.1681 45.0277 34.8118 46.6516 36.0151L47.2478 36.4575C47.1675 36.7186 47.1025 36.9841 47.0532 37.2528L43.909 50.1863L43.0993 51.3101C42.5087 51.1578 41.8645 51.409 41.5451 51.9618L40.2502 54.206C39.9806 54.1448 39.699 54.1644 39.4405 54.2624C39.182 54.3604 38.9582 54.5325 38.7969 54.7571L18.516 82.9061C18.3052 83.1974 18.1792 83.5414 18.152 83.9C18.1249 84.2586 18.1976 84.6177 18.3622 84.9374C18.5254 85.2578 18.7742 85.5267 19.0809 85.7143C19.3877 85.9018 19.7404 86.0007 20.1 86H48.297C48.6742 85.9997 49.0432 85.8903 49.3595 85.685C49.6759 85.4798 49.9261 85.1873 50.0801 84.843L51.2354 82.2556C51.354 81.9895 51.3622 81.6872 51.258 81.4152C51.1538 81.1431 50.9458 80.9236 50.6798 80.8049C50.548 80.746 50.406 80.7137 50.2617 80.7097C50.1175 80.7058 49.9739 80.7303 49.8391 80.7818C49.7043 80.8334 49.5811 80.911 49.4763 81.0102C49.3715 81.1094 49.2873 81.2283 49.2285 81.3601L48.1387 83.8027H20.5782L40.1653 56.6161L56.2016 65.7383L51.3773 76.5459C51.2586 76.812 51.2504 77.1144 51.3546 77.3866C51.4588 77.6587 51.6668 77.8783 51.9329 77.9971C52.0647 78.056 52.2068 78.0884 52.351 78.0923C52.4953 78.0963 52.6389 78.0718 52.7737 78.0201C52.9085 77.9685 53.0318 77.8909 53.1365 77.7916C53.2413 77.6923 53.3254 77.5733 53.3842 77.4415L58.4997 65.9808C58.6119 65.7314 58.6487 65.4546 58.6057 65.1845C58.5627 64.9144 58.4417 64.6627 58.2575 64.4605L59.4918 62.3233C59.6686 62.0191 59.7228 61.659 59.6434 61.3162L65.782 60.4172C65.8488 60.4074 65.9145 60.3916 65.9783 60.3698C67.3911 59.8868 68.7536 59.3375 69.8806 57.9425L72.2777 55.014L80.9323 61.43C81.8937 62.1431 83.0341 62.5172 84.2093 62.5172C84.4824 62.5172 84.7574 62.4973 85.0327 62.4566C86.4924 62.2392 87.7799 61.4672 88.6582 60.2817C90.4709 57.8354 89.956 54.3708 87.5103 52.5576H87.5102ZM65.0669 40.2961L65.6905 39.5168C65.7527 39.439 65.8121 39.3589 65.8684 39.2766C65.8875 39.2496 65.9056 39.2221 65.9234 39.1941C66.427 38.4216 66.6461 37.5112 66.543 36.5905C66.5415 36.5749 66.5396 36.5592 66.5374 36.5436C66.5369 36.5388 66.5363 36.5341 66.5357 36.5293C66.5345 36.519 66.5333 36.5082 66.5317 36.4978C66.5311 36.491 66.53 36.4846 66.5288 36.4779L66.5254 36.4509L66.5219 36.4314C66.5209 36.4226 66.5196 36.4138 66.5179 36.4051L66.5144 36.3834C66.5134 36.3753 66.5115 36.368 66.5105 36.3599C66.5094 36.3527 66.5081 36.3454 66.5065 36.3383C66.5053 36.3296 66.5036 36.3216 66.5018 36.3131L66.4985 36.293L66.4933 36.2684C66.4922 36.2611 66.4904 36.2535 66.4894 36.2461C66.4877 36.2384 66.4859 36.2308 66.4841 36.2231C66.483 36.2155 66.4815 36.2078 66.4797 36.2003L66.4744 36.1786C66.4727 36.1705 66.4715 36.1631 66.4699 36.1552L66.4648 36.1327C66.4615 36.1184 66.4579 36.1041 66.4539 36.0898C66.4522 36.0813 66.4498 36.0727 66.4481 36.0646L66.4429 36.0457C66.4408 36.0378 66.439 36.0292 66.4366 36.0207C66.4349 36.0141 66.433 36.0076 66.4309 36.0012C66.4286 35.9931 66.427 35.9847 66.4241 35.976C66.4229 35.9702 66.4211 35.9652 66.4195 35.9595C66.4172 35.9502 66.4144 35.9411 66.4122 35.9319C66.4105 35.9264 66.4088 35.9209 66.4069 35.9154C66.404 35.9061 66.4018 35.8976 66.3989 35.8884C66.3972 35.8821 66.3949 35.8752 66.3926 35.8685C66.3817 35.8322 66.3701 35.7961 66.3577 35.7602L66.3474 35.7311C66.3457 35.7265 66.3445 35.7224 66.3429 35.7179C66.3394 35.7088 66.3366 35.7003 66.3331 35.6911C66.3313 35.6858 66.3291 35.6801 66.3268 35.6744L66.3183 35.651C66.316 35.6444 66.3135 35.6379 66.3108 35.6315C66.3079 35.6236 66.3045 35.6155 66.3016 35.6075L66.2947 35.5903L66.2845 35.5645C66.2821 35.5591 66.2798 35.5535 66.2776 35.548C66.2746 35.5399 66.2714 35.5319 66.2679 35.524C66.265 35.5177 66.2628 35.5114 66.2598 35.5051C66.2569 35.4977 66.2535 35.4903 66.2502 35.4822C66.2478 35.4759 66.245 35.4702 66.2421 35.4639C66.2392 35.4564 66.2352 35.4484 66.2324 35.441L66.2238 35.422C66.2204 35.4147 66.2169 35.4074 66.2136 35.3992L66.2055 35.3826C66.2015 35.3745 66.1982 35.3665 66.1941 35.3586C66.1911 35.3523 66.1889 35.3466 66.1854 35.3409C66.1821 35.3335 66.1785 35.3255 66.1746 35.318C66.1717 35.3117 66.1683 35.306 66.1655 35.2997C66.1621 35.2923 66.1584 35.285 66.1545 35.2779C66.1511 35.2716 66.1482 35.2647 66.1449 35.2584C66.1415 35.2516 66.1375 35.2448 66.134 35.2373C66.1311 35.2314 66.1282 35.2259 66.1248 35.2201C66.1208 35.2121 66.1169 35.2046 66.1128 35.1973C66.1032 35.1801 66.0939 35.1627 66.0848 35.1453C66.0797 35.1365 66.075 35.1274 66.0699 35.1189L66.0614 35.104L66.0476 35.08L66.0373 35.0617C66.0326 35.0548 66.0287 35.0473 66.0241 35.0404C66.0213 35.0352 66.0182 35.03 66.0149 35.025C66.0098 35.017 66.0052 35.0089 66.0007 35.0016C65.9972 34.9963 65.9944 34.9913 65.9909 34.9855C65.9827 34.9722 65.9743 34.959 65.9657 34.9459C65.9617 34.9392 65.9572 34.9323 65.9525 34.9254L65.9405 34.9065C65.9365 34.9001 65.9323 34.8938 65.9279 34.8876C65.924 34.8813 65.92 34.875 65.9155 34.8693C65.9114 34.8624 65.9068 34.8561 65.9023 34.8498C65.8982 34.8435 65.8942 34.8378 65.8903 34.8323C65.8856 34.8252 65.881 34.8191 65.8765 34.8122L65.8645 34.7949C65.8599 34.7881 65.8551 34.7815 65.8501 34.775C65.8462 34.7691 65.8422 34.7636 65.8375 34.7578C65.8331 34.751 65.8279 34.7441 65.8233 34.7378C65.8192 34.7325 65.8152 34.7271 65.8113 34.7217C65.806 34.7143 65.8003 34.7069 65.7946 34.6994L65.7844 34.6862C65.7781 34.6783 65.7718 34.6697 65.7655 34.6616C65.7625 34.6582 65.7597 34.6543 65.757 34.6502L65.7357 34.6238C65.7334 34.6204 65.7312 34.6175 65.7288 34.6147C65.7203 34.6039 65.7111 34.5931 65.7025 34.5821C65.662 34.5334 65.6206 34.4855 65.5782 34.4385C65.5772 34.4373 65.5761 34.4362 65.5755 34.435C65.5658 34.4247 65.5566 34.4145 65.5469 34.4047C65.5355 34.3919 65.5239 34.3793 65.512 34.3669L65.4827 34.3367C65.4811 34.3355 65.4798 34.3338 65.4788 34.3326C65.4691 34.3229 65.4593 34.3131 65.4502 34.3033C65.4485 34.3023 65.4467 34.3005 65.4451 34.2989C65.4358 34.2892 65.4262 34.2799 65.4164 34.2708C65.4154 34.2692 65.4135 34.2679 65.412 34.2662C65.4022 34.2572 65.3924 34.2473 65.3821 34.2377L65.3787 34.2342L65.3472 34.2044L65.3449 34.2027C65.319 34.1784 65.2927 34.1546 65.2659 34.1312L65.6859 33.6053C65.8624 33.3835 66.0811 33.1989 66.3294 33.0622C66.5777 32.9255 66.8507 32.8394 67.1325 32.8089C67.7052 32.7459 68.2683 32.9085 68.718 33.2684C69.5861 33.9636 69.7743 35.1983 69.1873 36.115C69.1467 36.1612 69.1071 36.2083 69.0687 36.2564L65.7077 40.4597C65.6572 40.5226 65.6086 40.587 65.5618 40.6527C65.2134 41.0161 64.748 41.2451 64.2474 41.2993C64.12 41.3135 63.9915 41.3163 63.8635 41.3077C64.3278 41.0538 64.7369 40.7099 65.0669 40.2961ZM69.0442 49.8812L56.0398 40.24C56.0256 39.903 55.9929 39.5671 55.9419 39.2337C56.1221 39.1126 56.3287 39.0366 56.5444 39.012C56.8837 38.9725 57.2133 39.066 57.4737 39.2743L59.5863 40.9618C59.806 41.1372 60.04 41.2843 60.2825 41.404C60.5464 41.8447 60.8872 42.2346 61.2886 42.5552C62.0685 43.1795 63.0165 43.5103 64.0008 43.5103C64.2566 43.5108 64.512 43.4886 64.7639 43.4439C64.8367 44.629 65.3902 45.7802 66.3874 46.5784C67.1165 47.162 67.993 47.4894 68.9086 47.5294C68.7356 48.3108 68.7826 49.1248 69.0442 49.8812ZM60.7239 29.383C60.9003 29.1613 61.1189 28.9768 61.3671 28.8401C61.6152 28.7034 61.888 28.6172 62.1697 28.5866C62.7425 28.523 63.3055 28.6862 63.7558 29.046C64.684 29.7887 64.8351 31.1483 64.0923 32.0764L63.5489 32.7567L60.1774 30.0668L60.7239 29.383ZM56.3827 63.3139L42.1898 55.2396L43.0457 53.7582L57.1862 61.9218L56.3827 63.3139ZM68.1759 56.5562C67.4927 57.4014 66.6864 57.8007 65.3623 58.2585L58.0078 59.3354C57.8179 59.3633 57.6386 59.4404 57.4878 59.5591L45.0416 52.3733L45.8027 51.3172C45.8537 51.2491 45.8969 51.1756 45.9315 51.0979L45.9348 51.0894C45.963 51.0252 45.9841 50.9595 45.999 50.8919L49.1965 37.7398C49.2016 37.7181 49.2061 37.6959 49.2101 37.6735C49.3448 36.9274 49.649 36.2223 50.0992 35.6124L50.1028 35.6083C50.1102 35.5981 50.1177 35.5878 50.1252 35.578C50.148 35.5472 50.1715 35.5174 50.1949 35.4872L53.2797 31.5778C53.2923 31.5623 53.3049 31.5463 53.3175 31.5309L53.3185 31.5296C53.7184 31.0411 54.2409 30.6777 54.832 30.4779C54.847 30.4728 54.8619 30.4675 54.8767 30.4619C55.0806 30.3963 55.2904 30.3511 55.5032 30.327C56.3358 30.2313 57.1482 30.4609 57.7916 30.974L57.9438 31.0954L57.9471 31.0988L63.0341 35.1569C63.0351 35.158 63.037 35.1592 63.0381 35.1604L63.7596 35.7353C64.0971 36.0049 64.3106 36.3957 64.3598 36.8351C64.3678 36.9084 64.3712 36.981 64.3708 37.0537C64.3702 37.083 64.369 37.1121 64.3673 37.1407C64.3655 37.17 64.3627 37.1992 64.3592 37.2277C64.3221 37.5579 64.1905 37.8743 63.9742 38.1444L63.3511 38.9243L63.3236 38.958C63.3224 38.9592 63.3214 38.9609 63.3202 38.9621C63.3121 38.9712 63.3047 38.9804 63.2968 38.9889C63.2944 38.9918 63.2921 38.994 63.2905 38.997L63.2686 39.0204C63.2664 39.0233 63.2641 39.0255 63.2617 39.0277C63.2533 39.0375 63.2442 39.0468 63.2354 39.0558C63.231 39.0605 63.2263 39.0651 63.2218 39.0696L63.2086 39.0828C63.2027 39.0885 63.1971 39.0942 63.1914 39.0993L63.1828 39.108C63.1758 39.1143 63.169 39.1208 63.1623 39.1275C62.6913 39.5606 62.0259 39.7128 61.4295 39.5045C61.4139 39.4988 61.3981 39.4936 61.3821 39.489C61.2322 39.4313 61.0891 39.3506 60.9581 39.2458L58.8455 37.5579C58.1251 36.9822 57.2187 36.7229 56.2941 36.8294C55.3516 36.9375 54.5053 37.408 53.9086 38.1551C53.8096 38.275 53.7372 38.4145 53.6963 38.5645C53.6553 38.7144 53.6468 38.8714 53.6711 39.0249V39.0255C53.674 39.0456 53.6779 39.0657 53.682 39.0856C53.805 39.655 53.8599 40.2204 53.845 40.7658C53.8444 40.7936 53.845 40.8217 53.8462 40.8493C53.7964 42.1785 53.3311 43.4157 52.4431 44.5971C52.268 44.83 52.1926 45.123 52.2335 45.4115C52.2744 45.7001 52.4282 45.9606 52.6611 46.1357C52.8941 46.3104 53.1869 46.3856 53.4752 46.3447C53.7636 46.3039 54.0239 46.1503 54.1992 45.9178C54.9493 44.9199 55.4719 43.8693 55.7653 42.7719L70.5111 53.7043L68.1759 56.5562ZM69.3455 45.3227C68.7728 45.3862 68.2097 45.2231 67.7598 44.8632C66.8912 44.168 66.703 42.9331 67.2906 42.017C67.3314 41.9707 67.3702 41.9237 67.4092 41.8757L70.7702 37.6717C70.8212 37.6087 70.8693 37.5441 70.9161 37.4795C71.2646 37.1161 71.73 36.8871 72.2305 36.8329C72.5121 36.8007 72.7972 36.8248 73.0694 36.9037C73.3416 36.9825 73.5954 37.1147 73.8161 37.2925C74.7442 38.0351 74.8952 39.3945 74.153 40.3228L73.5324 41.0987C73.4033 41.225 73.282 41.3589 73.1691 41.4998L70.5277 44.803C70.1965 45.0938 69.7837 45.2753 69.3455 45.3227ZM71.7923 50.1138C70.8846 49.3881 70.7371 48.0589 71.4627 47.1515L72.1418 46.3023C72.2717 46.1752 72.3938 46.0402 72.5074 45.8983L75.1459 42.599C75.4691 42.3164 75.8714 42.1398 76.2983 42.0932C76.5735 42.0619 76.8522 42.0855 77.1183 42.1626C77.3844 42.2396 77.6325 42.3687 77.8484 42.5423C78.7554 43.2684 78.9036 44.5976 78.1774 45.5053L77.4593 46.4035C77.453 46.411 77.4467 46.419 77.4404 46.4269L74.7556 49.7848C74.4038 50.2243 73.9019 50.5011 73.3424 50.5629C73.0671 50.5943 72.7884 50.5708 72.5223 50.4937C72.2562 50.4166 72.0081 50.2875 71.7923 50.1138ZM86.8929 58.9736C86.3635 59.6871 85.5882 60.1524 84.7098 60.2829C83.8309 60.4133 82.9544 60.1941 82.2408 59.6647L72.9413 52.7709C73.1562 52.7785 73.3713 52.7704 73.5851 52.7469C74.7284 52.6199 75.7538 52.0552 76.4719 51.1568L78.5037 48.6156L86.2015 54.3227C87.674 55.4145 87.9841 57.5007 86.8929 58.9736Z" fill="#292929"/>
</g>
<defs>
<clipPath id="clip0_296_456">
<rect width="75" height="75" fill="white" transform="translate(18 11)"/>
</clipPath>
</defs>
</svg>
