<svg width="100" height="100" viewBox="0 0 100 100" fill="none" xmlns="http://www.w3.org/2000/svg">
<circle cx="50" cy="50" r="50" fill="#FAD049"/>
<path d="M27.5625 73.8247C27.5625 75.575 28.9864 76.9987 30.7365 76.9987C32.4866 76.9987 33.9105 75.5748 33.9105 73.8247C33.9105 72.0746 32.4866 70.6508 30.7365 70.6508C28.9864 70.6508 27.5625 72.0746 27.5625 73.8247ZM31.8433 73.8247C31.8433 74.435 31.3467 74.9315 30.7365 74.9315C30.1262 74.9315 29.6297 74.435 29.6297 73.8247C29.6297 73.2145 30.1262 72.718 30.7365 72.718C31.3467 72.718 31.8433 73.2145 31.8433 73.8247ZM36.1242 73.8247C36.1242 75.575 37.548 76.9987 39.2981 76.9987C41.0482 76.9987 42.4721 75.5748 42.4721 73.8247C42.4721 72.0746 41.0482 70.6508 39.2981 70.6508C37.548 70.6508 36.1242 72.0746 36.1242 73.8247ZM40.4049 73.8247C40.4049 74.435 39.9084 74.9315 39.2981 74.9315C38.6879 74.9315 38.1914 74.435 38.1914 73.8247C38.1914 73.2145 38.6879 72.718 39.2981 72.718C39.9084 72.718 40.4049 73.2145 40.4049 73.8247Z" fill="#292929"/>
<path d="M75.8317 15H24.168C21.3183 15 19 17.3183 19 20.168V49.7608C19 50.3316 19.4626 50.7944 20.0336 50.7944C20.6046 50.7944 21.0672 50.3316 21.0672 49.7608V20.168C21.0672 18.4582 22.4583 17.0672 24.168 17.0672H75.8318C77.5416 17.0672 78.9327 18.4582 78.9327 20.168V66.3701H52.2517C51.6808 66.3701 51.2181 66.8329 51.2181 67.4037C51.2181 67.9746 51.6808 68.4373 52.2517 68.4373H78.9327V76.126C78.9327 77.8358 77.5416 79.2268 75.8318 79.2268H24.168C22.4583 79.2268 21.0672 77.8358 21.0672 76.126V68.4373H47.7481C48.3191 68.4373 48.7817 67.9746 48.7817 67.4037C48.7817 66.8329 48.3191 66.3701 47.7481 66.3701H21.0672V54.2659C21.0672 53.6951 20.6046 53.2323 20.0336 53.2323C19.4626 53.2323 19 53.6951 19 54.2659V76.126C19 78.9757 21.3183 81.294 24.168 81.294H27.5622V84.5268C27.5622 84.801 27.6711 85.0639 27.865 85.2577C28.0588 85.4515 28.3217 85.5604 28.5958 85.5604H32.8768C33.1509 85.5604 33.4138 85.4515 33.6076 85.2577C33.8015 85.0639 33.9104 84.801 33.9104 84.5268V81.294H66.0896V84.5268C66.0896 84.801 66.1985 85.0639 66.3924 85.2577C66.5862 85.4515 66.8491 85.5604 67.1232 85.5604H71.4042C71.6783 85.5604 71.9412 85.4515 72.135 85.2577C72.3289 85.0639 72.4378 84.801 72.4378 84.5268V81.294H75.832C78.6817 81.294 81 78.9757 81 76.126V20.168C80.9997 17.3183 78.6814 15 75.8317 15ZM31.843 83.4932H29.6293V81.294H31.843V83.4932ZM70.3704 83.4932H68.1567V81.294H70.3704V83.4932Z" fill="#292929"/>
<path d="M62.7311 19.2804H24.3168C24.0427 19.2804 23.7798 19.3893 23.5859 19.5831C23.3921 19.777 23.2832 20.0399 23.2832 20.314V63.1231C23.2832 63.3973 23.3921 63.6602 23.5859 63.854C23.7798 64.0478 24.0427 64.1567 24.3168 64.1567H75.6856C75.9597 64.1567 76.2226 64.0478 76.4164 63.854C76.6103 63.6602 76.7192 63.3973 76.7192 63.1231V20.314C76.7192 20.0399 76.6103 19.777 76.4164 19.5831C76.2226 19.3893 75.9597 19.2804 75.6856 19.2804H67.2361C66.6651 19.2804 66.2025 19.7432 66.2025 20.314C66.2025 20.8848 66.6651 21.3476 67.2361 21.3476H74.652V62.0895H25.3504V21.3476H62.7311C63.302 21.3476 63.7647 20.8848 63.7647 20.314C63.7647 19.7432 63.302 19.2804 62.7311 19.2804Z" fill="#292929"/>
<path d="M27.5625 24.5285V58.8419C27.5625 59.1161 27.6714 59.379 27.8652 59.5728C28.0591 59.7666 28.322 59.8755 28.5961 59.8755H71.4043C71.6784 59.8755 71.9413 59.7666 72.1351 59.5728C72.329 59.379 72.4379 59.1161 72.4379 58.8419V24.5285C72.4379 24.2543 72.329 23.9914 72.1351 23.7976C71.9413 23.6038 71.6784 23.4949 71.4043 23.4949H28.5961C28.322 23.4949 28.0591 23.6038 27.8652 23.7976C27.6714 23.9914 27.5625 24.2543 27.5625 24.5285ZM29.6297 25.5621H70.3707V57.8083H29.6297V25.5621Z" fill="#292929"/>
<path d="M67.1238 40.7538H64.932C65.639 39.4694 66.0169 38.022 66.0169 36.5183C66.0169 31.6616 62.0658 27.7104 57.2091 27.7104C54.2843 27.7104 51.624 29.1314 50.0005 31.4521C48.377 29.1313 45.7166 27.7104 42.7918 27.7104C37.9351 27.7104 33.984 31.6616 33.984 36.5183C33.984 37.9951 34.3478 39.4183 35.0318 40.6869H32.8774C32.3064 40.6869 31.8438 41.1496 31.8438 41.7205C31.8438 42.2913 32.3064 42.7541 32.8774 42.7541H36.5732C36.5848 42.7657 36.5963 42.7771 36.6065 42.7869L49.2705 55.4284C49.7574 55.8312 50.2441 55.8312 50.731 55.4284L63.3607 42.8211H67.1241C67.3982 42.821 67.6611 42.7121 67.8549 42.5182C68.0488 42.3244 68.1576 42.0614 68.1576 41.7873C68.1575 41.5132 68.0486 41.2503 67.8547 41.0565C67.6609 40.8627 67.398 40.7538 67.1238 40.7538ZM50.0006 53.2365L39.4996 42.7541H43.5793C44.0231 42.7541 44.4172 42.4709 44.5587 42.0504L45.7971 38.3742L49.0392 46.5769C49.3762 47.4296 50.5619 47.449 50.9392 46.6293L54.2575 39.4223L55.4748 42.2021C55.5554 42.3862 55.6879 42.5427 55.856 42.6527C56.0242 42.7626 56.2207 42.8212 56.4216 42.8212H60.4341L50.0006 53.2365ZM62.4522 40.7538H57.0976L55.2283 36.4848C54.6074 35.6655 53.9789 35.6596 53.3426 36.4671L50.0729 43.5681L46.6809 34.9863C46.0107 34.0985 45.3638 34.1152 44.7402 35.0364L42.8368 40.6869H37.4972C36.561 39.5022 36.0513 38.0479 36.0513 36.5183C36.0513 32.8014 39.0751 29.7777 42.792 29.7777C45.5532 29.7777 48.0067 31.4328 49.0424 33.9944C49.6811 34.856 50.32 34.856 50.9588 33.9944C51.9945 31.4328 54.4478 29.7777 57.2092 29.7777C60.9261 29.7777 63.9498 32.8014 63.9498 36.5183C63.9498 38.0764 63.4223 39.5575 62.4522 40.7538ZM52.141 76.9989L52.1596 76.9985H69.2456L69.2642 76.9989C71.0143 76.9989 72.4382 75.575 72.4382 73.8249C72.4382 72.0765 71.0172 70.6539 69.2696 70.6511L69.2642 70.6508H52.1408L52.1353 70.6511C50.3879 70.6541 48.967 72.0766 48.967 73.8249C48.967 75.575 50.3909 76.9989 52.141 76.9989ZM69.2642 72.718C69.8746 72.718 70.371 73.2145 70.371 73.8248C70.371 74.4335 69.8771 74.9288 69.2688 74.9314L69.2641 74.9311H69.2549C68.6489 74.926 68.1573 74.432 68.1573 73.8248C68.1574 73.2145 68.654 72.718 69.2642 72.718ZM66.2898 72.7178C66.0238 73.4556 66.0238 74.1934 66.2895 74.9311H55.1157C55.3815 74.1934 55.3814 73.4556 55.1154 72.7178H66.2898ZM52.141 72.718C52.7514 72.718 53.2478 73.2145 53.2478 73.8248C53.2478 74.4318 52.7563 74.926 52.1502 74.9311H52.1408L52.1363 74.9314C51.5281 74.9288 51.0342 74.4335 51.0342 73.8248C51.0342 73.2145 51.5307 72.718 52.141 72.718Z" fill="#292929"/>
</svg>
