<svg width="100" height="100" viewBox="0 0 100 100" fill="none" xmlns="http://www.w3.org/2000/svg">
<circle cx="50" cy="50" r="50" fill="#FAD049"/>
<path d="M83.151 57.6024H59.7035C59.0321 57.6024 58.4829 58.1516 58.4829 58.823V63.8152C58.4829 64.4865 59.0321 65.0358 59.7035 65.0358H70.6766C70.4216 65.7822 69.9399 66.4305 69.2988 66.89C68.6576 67.3495 67.889 67.5974 67.1002 67.599H56.9938C55.8464 62.5336 51.3058 58.7375 45.8986 58.7375C43.832 58.7384 41.8044 59.3011 40.0329 60.3653C38.2613 61.4295 36.8123 62.9553 35.841 64.7794H34.1199C31.8008 64.7794 29.9089 62.8997 29.9089 60.5806V38.0241C29.9089 35.6928 31.8008 33.8009 34.1199 33.8009H41.1627C41.1993 33.8986 41.2238 33.984 41.2604 34.0816C41.6398 35.0661 42.2106 35.9655 42.9396 36.7281C43.6687 37.4907 44.5416 38.1013 45.508 38.5246C46.5455 38.9762 47.6441 39.2081 48.7426 39.2081C49.4017 39.2081 50.0608 39.0861 50.7077 38.9274L53.8568 47.0321L52.8804 47.4105C52.7301 47.4685 52.5928 47.5556 52.4764 47.6669C52.36 47.7783 52.2668 47.9115 52.2021 48.059C52.1375 48.2065 52.1026 48.3653 52.0996 48.5264C52.0966 48.6874 52.1255 48.8474 52.1846 48.9972C52.3677 49.4733 52.8316 49.7662 53.3198 49.7662C53.4663 49.7662 53.6127 49.7418 53.7592 49.693L58.5073 47.8499L59.4105 50.169C59.9679 51.5997 61.0696 52.7512 62.4743 53.3712C63.8791 53.9912 65.4723 54.0292 66.9049 53.4768C69.8832 52.3172 71.3601 48.9606 70.2127 45.9824L69.3095 43.6511L71.9338 42.638L74.0576 41.808C74.6801 41.5638 74.9974 40.8559 74.7533 40.2334C74.6953 40.0832 74.6081 39.9459 74.4968 39.8295C74.3855 39.7131 74.2523 39.6198 74.1048 39.5552C73.9573 39.4905 73.7984 39.4557 73.6374 39.4527C73.4764 39.4496 73.3164 39.4785 73.1666 39.5377L72.1901 39.916L66.2458 24.6099C66.0017 23.9874 65.2938 23.67 64.6713 23.9141C64.521 23.9721 64.3837 24.0593 64.2673 24.1706C64.1509 24.2819 64.0577 24.4152 63.993 24.5627C63.9284 24.7102 63.8935 24.869 63.8905 25.03C63.8875 25.1911 63.9164 25.3511 63.9755 25.5009L69.9076 40.7949L56.1271 46.1533L52.9658 37.9875C54.5678 37.0093 55.7738 35.498 56.372 33.7189C56.9702 31.9398 56.9224 30.0068 56.237 28.2594C54.8211 24.6099 51.0129 22.5837 47.2901 23.2794C47.0582 22.2175 47.6196 21.1068 48.6693 20.704L58.251 16.9812C58.8079 16.7657 59.4275 16.7795 59.9742 17.0197C60.5209 17.2599 60.9502 17.7069 61.1682 18.2628L62.3277 21.2655C62.4443 21.5681 62.6763 21.8121 62.9727 21.9437C63.2691 22.0754 63.6057 22.0838 63.9084 21.9673C64.2111 21.8508 64.4551 21.6188 64.5867 21.3223C64.7183 21.0259 64.7268 20.6893 64.6102 20.3866L63.4385 17.384C62.9868 16.2122 62.108 15.2846 60.9607 14.7841C59.8133 14.2837 58.5439 14.2471 57.3721 14.6987L56.7985 14.9306L54.6991 9.53561L57.2989 8.52252C57.9214 8.27841 58.2388 7.57046 57.9946 6.94796C57.7505 6.31326 57.0426 5.99591 56.4079 6.24002L42.7739 11.5374C42.1514 11.7815 41.8341 12.4894 42.0782 13.1241C42.2735 13.6002 42.7373 13.8931 43.2255 13.8931C43.372 13.8931 43.5185 13.8687 43.6649 13.8199L46.2648 12.8068L48.3642 18.2018L47.7783 18.4215C45.4958 19.3125 44.3241 21.8025 44.9954 24.1094C44.202 24.5366 43.4818 25.0737 42.8716 25.7328H34.1199C27.3457 25.7328 21.8286 31.2499 21.8286 38.0241V48.5456C21.8286 49.2291 22.3779 49.7662 23.0492 49.7662C23.7205 49.7662 24.2698 49.2291 24.2698 48.5456V38.0241C24.2698 32.5925 28.6883 28.174 34.1199 28.174H41.3092C40.8942 29.1993 40.6989 30.2856 40.7233 31.3597H34.1199C30.4582 31.3597 27.4677 34.3502 27.4677 38.0241V60.5806C27.4677 64.2424 30.4582 67.2206 34.1199 67.2206H34.9011C34.657 68.1483 34.5105 69.1247 34.5105 70.1256V70.4185H34.1199C28.6883 70.4185 24.2698 66 24.2698 60.5806V54.6486C24.2698 53.9772 23.7205 53.428 23.0492 53.428C22.3779 53.428 21.8286 53.9772 21.8286 54.6486V60.5806C21.8286 67.3427 27.3457 72.8597 34.1199 72.8597H34.5105V75.6183H30.3361C28.1879 75.6183 26.4424 77.3637 26.4424 79.5241V81.8433H17.8495C17.1782 81.8433 16.6289 82.3803 16.6289 83.0639C16.6289 83.7352 17.1782 84.2844 17.8495 84.2844H77.8658C78.5493 84.2844 79.0864 83.7352 79.0864 83.0639C79.0864 82.3803 78.5493 81.8433 77.8658 81.8433H65.3548V79.5241C65.3548 77.3637 63.6093 75.6183 61.4489 75.6183H57.2867V70.1256C57.2867 70.1012 57.2745 70.0768 57.2745 70.0402H67.1002C70.1151 70.0402 72.6417 67.8919 73.2154 65.0358H83.151C83.8223 65.0358 84.3716 64.4865 84.3716 63.8152V58.823C84.3716 58.1516 83.8223 57.6024 83.151 57.6024ZM67.027 44.5421L67.9302 46.8612C68.6016 48.5822 67.7471 50.523 66.0261 51.1943C64.2929 51.8656 62.3521 51.0112 61.693 49.2902L60.7898 46.9588L67.027 44.5421ZM50.4758 11.1712L52.4166 10.4144L54.516 15.8094L50.6345 17.3108L48.5351 11.9158L50.4758 11.1712ZM43.6283 28.9186C44.2306 27.56 45.3447 26.4941 46.7286 25.9525C47.3877 25.6962 48.0713 25.5741 48.7426 25.5741C50.2263 25.5741 51.6495 26.1627 52.6998 27.2108C53.7502 28.2588 54.3419 29.6807 54.3451 31.1644C54.3463 32.293 54.0052 33.3954 53.3666 34.326C52.7281 35.2566 51.8222 35.9715 50.7688 36.3763C49.3773 36.9134 47.8638 36.889 46.4845 36.2909C45.1296 35.6806 44.0799 34.5821 43.5307 33.1906C42.9936 31.7991 43.0302 30.2856 43.6283 28.9186ZM36.9517 70.1256C36.9517 65.1944 40.9674 61.1787 45.8986 61.1787C50.8298 61.1787 54.8455 65.1944 54.8455 70.1256V75.6183H36.9517V70.1256ZM61.4489 78.0594C62.2545 78.0594 62.9136 78.7186 62.9136 79.5241V81.8433H28.8836V79.5241C28.8836 78.7186 29.5305 78.0594 30.3361 78.0594H56.0783H61.4489ZM81.9304 62.5946H60.9241V60.0436H81.9304V62.5946Z" fill="#292929"/>
<path d="M45.8995 64.3767C45.0425 64.3767 44.2047 64.6308 43.4922 65.107C42.7796 65.5831 42.2242 66.2598 41.8962 67.0516C41.5683 67.8434 41.4825 68.7146 41.6497 69.5551C41.8169 70.3957 42.2295 71.1678 42.8355 71.7738C43.4415 72.3798 44.2136 72.7924 45.0541 72.9596C45.8947 73.1268 46.7659 73.041 47.5577 72.7131C48.3495 72.3851 49.0262 71.8297 49.5023 71.1171C49.9784 70.4046 50.2326 69.5668 50.2326 68.7098C50.2204 66.3174 48.2796 64.3767 45.8995 64.3767ZM45.8995 70.5895C44.862 70.5895 44.0076 69.7473 44.0076 68.6976C44.0076 67.6479 44.8498 66.8057 45.8995 66.8057C46.9492 66.8057 47.7914 67.6479 47.7914 68.6976C47.7914 69.7473 46.937 70.5895 45.8995 70.5895Z" fill="#292929"/>
</svg>
