<svg width="20" height="20" viewBox="0 0 20 20" fill="none" xmlns="http://www.w3.org/2000/svg">
<g clip-path="url(#clip0_1630_2367)">
<path d="M19.0008 17.2623H5.62686C5.49581 17.2623 5.36604 17.2365 5.24496 17.1863C5.12388 17.1361 5.01387 17.0626 4.9212 16.97C4.82853 16.8773 4.75502 16.7673 4.70487 16.6462C4.65472 16.5251 4.62891 16.3954 4.62891 16.2643C4.62891 16.1333 4.65472 16.0035 4.70487 15.8824C4.75502 15.7613 4.82853 15.6513 4.9212 15.5586C5.01387 15.466 5.12388 15.3925 5.24496 15.3423C5.36604 15.2922 5.49581 15.2664 5.62686 15.2664H19.0004C19.2651 15.2663 19.519 15.3714 19.7062 15.5585C19.8933 15.7457 19.9985 15.9995 19.9986 16.2641C19.9986 16.5288 19.8935 16.7827 19.7064 16.9699C19.5193 17.157 19.2655 17.2622 19.0008 17.2623ZM19.0008 10.9981H5.62686C5.36219 10.9981 5.10835 10.893 4.9212 10.7058C4.73405 10.5187 4.62891 10.2648 4.62891 10.0002C4.62891 9.73548 4.73405 9.48164 4.9212 9.29449C5.10835 9.10734 5.36219 9.0022 5.62686 9.0022H19.0004C19.2651 9.00215 19.519 9.10725 19.7062 9.29437C19.8933 9.48149 19.9985 9.73531 19.9986 9.99998C19.9986 10.2647 19.8935 10.5185 19.7064 10.7057C19.5193 10.8929 19.2655 10.9981 19.0008 10.9981ZM19.0008 4.73395H5.62686C5.36219 4.73395 5.10835 4.6288 4.9212 4.44165C4.73405 4.2545 4.62891 4.00067 4.62891 3.73599C4.62891 3.47132 4.73405 3.21748 4.9212 3.03033C5.10835 2.84318 5.36219 2.73804 5.62686 2.73804H19.0004C19.2651 2.73799 19.519 2.84309 19.7062 3.03021C19.8933 3.21734 19.9985 3.47115 19.9986 3.73583C19.9986 4.0005 19.8935 4.25435 19.7064 4.44153C19.5193 4.62872 19.2655 4.7339 19.0008 4.73395Z" fill="#AFAFAF"/>
<path d="M1.34025 5.15341C2.08045 5.15341 2.6805 4.55335 2.6805 3.81315C2.6805 3.07295 2.08045 2.4729 1.34025 2.4729C0.600051 2.4729 0 3.07295 0 3.81315C0 4.55335 0.600051 5.15341 1.34025 5.15341Z" fill="#AFAFAF"/>
<path d="M1.34025 11.3404C2.08045 11.3404 2.6805 10.7404 2.6805 10.0002C2.6805 9.25996 2.08045 8.65991 1.34025 8.65991C0.600051 8.65991 0 9.25996 0 10.0002C0 10.7404 0.600051 11.3404 1.34025 11.3404Z" fill="#AFAFAF"/>
<path d="M1.34025 17.5274C2.08045 17.5274 2.6805 16.9274 2.6805 16.1872C2.6805 15.447 2.08045 14.8469 1.34025 14.8469C0.600051 14.8469 0 15.447 0 16.1872C0 16.9274 0.600051 17.5274 1.34025 17.5274Z" fill="#AFAFAF"/>
</g>
<defs>
<clipPath id="clip0_1630_2367">
<rect width="20" height="20" fill="white"/>
</clipPath>
</defs>
</svg>
