<svg width="21" height="29" viewBox="0 0 21 29" fill="none" xmlns="http://www.w3.org/2000/svg">
<path d="M20.1324 10.3717C20.1324 13.6439 18.4983 16.5291 16.004 18.2707V20.0043H11.1879V13.4087L15.1145 9.48207L14.1415 8.50915L10.4998 12.151L6.85798 8.50921L5.88512 9.48213L9.81173 13.4088V20.0044H4.9956V18.2708C2.50133 16.5292 0.867188 13.644 0.867188 10.3718C0.867188 5.05156 5.17949 0.739258 10.4998 0.739258C15.8201 0.739258 20.1324 5.05149 20.1324 10.3717ZM4.99567 22.7564H16.0041V21.3804H4.99567V22.7564ZM6.37168 25.5086H14.628V24.1325H6.37168V25.5086ZM7.74775 28.2607H13.2519V26.8846H7.74775V28.2607Z" fill="#292929"/>
</svg>
