<svg width="20" height="20" viewBox="0 0 20 20" fill="none" xmlns="http://www.w3.org/2000/svg">
<path d="M18.8751 16.3083C18.9389 16.5482 18.9386 16.8007 18.8741 17.0404C18.8097 17.2802 18.6833 17.4988 18.5078 17.6743C18.3322 17.8499 18.1136 17.9762 17.8739 18.0407C17.6341 18.1052 17.3817 18.1055 17.1418 18.0416L15.5168 17.6083C14.5834 18.0871 13.5491 18.3357 12.5001 18.3333C12.1654 18.3332 11.8311 18.3081 11.5001 18.2583C10.2135 18.0545 9.01604 17.4746 8.05843 16.5916C8.29176 16.5916 8.51676 16.5916 8.75009 16.5416C9.95584 16.3619 11.1075 15.9198 12.1238 15.2465C13.14 14.5733 13.9962 13.6852 14.632 12.645C15.2677 11.6048 15.6674 10.4378 15.803 9.22631C15.9386 8.01481 15.8068 6.7883 15.4168 5.6333C16.395 6.10212 17.2441 6.80257 17.8903 7.67389C18.5366 8.54521 18.9604 9.56107 19.1251 10.6333C19.3357 12.0072 19.1083 13.4126 18.4751 14.65L18.8751 16.3083ZM12.2084 3.61664C11.3361 2.74613 10.2395 2.13445 9.04054 1.84955C7.84155 1.56464 6.58705 1.61765 5.41637 2.0027C4.24569 2.38775 3.20465 3.08976 2.40887 4.03076C1.61309 4.97176 1.09371 6.11493 0.908431 7.3333C0.697825 8.70723 0.925248 10.1126 1.55843 11.35L1.1251 13.0166C1.05753 13.2563 1.05593 13.5099 1.12046 13.7504C1.185 13.9909 1.31328 14.2096 1.49176 14.3833C1.66546 14.5618 1.88412 14.6901 2.12467 14.7546C2.36521 14.8191 2.61872 14.8175 2.85843 14.75L4.48343 14.3166C5.42034 14.7811 6.45451 15.0153 7.50009 15C8.8194 15.001 10.1093 14.6106 11.2066 13.8781C12.3039 13.1456 13.1592 12.1041 13.6642 10.8852C14.1693 9.66641 14.3013 8.32516 14.0436 7.03126C13.7859 5.73736 13.1502 4.54901 12.2168 3.61664H12.2084Z" fill="#2F2B78"/>
</svg>
