<svg width="48" height="48" viewBox="0 0 48 48" fill="none" xmlns="http://www.w3.org/2000/svg">
<circle cx="23.5332" cy="23.5332" r="23.5332" fill="#FAD049"/>
<path d="M37.125 15.5249V18.3468H10.875V15.5249C10.875 13.978 12.1406 12.7124 13.6875 12.7124H16.9688V15.4874C16.9688 16.003 17.3906 16.4249 17.9062 16.4249C18.4219 16.4249 18.8438 16.003 18.8438 15.4874V12.7124H29.1562V15.4874C29.1562 16.003 29.5781 16.4249 30.0938 16.4249C30.6094 16.4249 31.0312 16.003 31.0312 15.4874V12.7124H34.3125C35.8594 12.7124 37.125 13.978 37.125 15.5249ZM29.625 29.6062H36.5531L28.6875 36.6187V30.5437C28.6875 30.028 29.1094 29.6062 29.625 29.6062Z" fill="#292929"/>
<path d="M37.125 20.2219V27.7312H29.625C28.0781 27.7312 26.8125 28.9969 26.8125 30.5437V37.125H13.6875C12.1406 37.125 10.875 35.8594 10.875 34.3125V20.2219H37.125ZM18.8438 11.8125V12.7125H16.9688V11.8125C16.9688 11.2969 17.3906 10.875 17.9062 10.875C18.4219 10.875 18.8438 11.2969 18.8438 11.8125ZM31.0312 11.8125V12.7125H29.1562V11.8125C29.1562 11.2969 29.5781 10.875 30.0938 10.875C30.6094 10.875 31.0312 11.2969 31.0312 11.8125Z" fill="#292929"/>
</svg>
