<svg width="25" height="25" viewBox="0 0 25 25" fill="none" xmlns="http://www.w3.org/2000/svg">
<path d="M3.35303 23.0626C3.71177 24.1852 4.75239 24.9994 5.97759 24.9994H19.0217C20.2468 24.9994 21.2875 24.1852 21.6462 23.0626H3.35303ZM20.9724 4.01626L17.7638 0.807666C17.6331 0.676939 17.4898 0.559487 17.3359 0.457031V4.42651C17.3361 4.46996 17.3534 4.51158 17.3842 4.54225C17.4149 4.57293 17.4566 4.59015 17.5 4.59013H21.4134C21.2942 4.38252 21.1462 4.19013 20.9724 4.01626Z" fill="#C8C8C8"/>
<path d="M21.7805 6.05581H17.5004C16.6018 6.05581 15.8712 5.3252 15.8712 4.4271V0.000976562C15.8521 0 15.8326 0 15.8136 0H5.97778C4.45698 0 3.21948 1.23755 3.21948 2.75879V10.2831H21.7805L21.7805 6.05581ZM12.5154 14.9246C12.0687 14.9246 11.8454 15.1756 11.8454 15.6774V17.6722C11.8454 18.1741 12.0687 18.425 12.5154 18.425C12.967 18.425 13.1929 18.1741 13.1929 17.6722V15.6774C13.1928 15.1756 12.967 14.9246 12.5154 14.9246Z" fill="#C8C8C8"/>
<path d="M21.8759 11.748H3.12415C2.10359 11.748 1.27332 12.5783 1.27332 13.5989V19.7469C1.27332 20.7675 2.10359 21.5978 3.12415 21.5978H21.8758C22.8964 21.5978 23.7267 20.7675 23.7267 19.7469V13.5989C23.7267 12.5783 22.8964 11.748 21.8759 11.748ZM9.98616 17.6268C9.98616 18.2391 9.81795 18.6881 9.48181 18.9742C9.14553 19.2602 8.69636 19.4033 8.1344 19.4033H6.80203C6.65144 19.4033 6.52844 19.3682 6.43318 19.2979C6.33782 19.2277 6.29011 19.1449 6.29011 19.0495V14.2544C6.29011 14.1591 6.33777 14.0763 6.43318 14.006C6.52844 13.9358 6.65149 13.9006 6.80203 13.9006H8.1344C8.69636 13.9006 9.14558 14.0437 9.48181 14.3297C9.81795 14.6158 9.98616 15.065 9.98616 15.6771V17.6268ZM14.3672 17.6719C14.3672 18.2842 14.199 18.7333 13.8629 19.0193C13.5266 19.3054 13.0774 19.4484 12.5155 19.4484C11.9584 19.4484 11.5117 19.3054 11.1756 19.0193C10.8393 18.7333 10.6712 18.2842 10.6712 17.6719V15.6771C10.6712 15.0649 10.8393 14.6157 11.1756 14.3297C11.5117 14.0437 11.9584 13.9006 12.5155 13.9006C13.0774 13.9006 13.5266 14.0437 13.8629 14.3297C14.199 14.6157 14.3672 15.0649 14.3672 15.6771V17.6719ZM16.919 18.4247C17.0595 18.4247 17.1761 18.4021 17.269 18.357C17.3617 18.3118 17.4282 18.2429 17.4684 18.15C17.5085 18.0572 17.5349 17.9806 17.5475 17.9204C17.5599 17.8602 17.5712 17.7773 17.5813 17.672C17.6013 17.4361 17.7946 17.3182 18.161 17.3182C18.3767 17.3182 18.5298 17.3571 18.6201 17.4348C18.7105 17.5126 18.7556 17.6595 18.7556 17.8752C18.7556 18.362 18.5787 18.7459 18.2249 19.0269C17.8711 19.308 17.4181 19.4485 16.8662 19.4485C16.3291 19.4485 15.8938 19.3054 15.5601 19.0194C15.2263 18.7333 15.0595 18.2843 15.0595 17.672V15.6771C15.0595 15.0649 15.2263 14.6158 15.5601 14.3297C15.8938 14.0437 16.3291 13.9006 16.8662 13.9006C17.4181 13.9006 17.8711 14.0337 18.2249 14.2996C18.5787 14.5657 18.7556 14.9319 18.7556 15.3986C18.7556 15.6145 18.7104 15.7612 18.6201 15.839C18.5298 15.9168 18.3793 15.9557 18.1685 15.9557C17.7921 15.9557 17.5964 15.8378 17.5813 15.6019C17.5663 15.1502 17.3429 14.9244 16.9114 14.9244C16.4597 14.9244 16.2339 15.1754 16.2339 15.6771V17.672C16.234 18.1738 16.4622 18.4247 16.919 18.4247Z" fill="#C8C8C8"/>
<path d="M8.13433 14.9248H7.46436V18.38H8.13433C8.58599 18.38 8.81182 18.1291 8.81182 17.6272V15.6776C8.81182 15.1758 8.58599 14.9248 8.13433 14.9248Z" fill="#C8C8C8"/>
</svg>
