<svg width="52" height="52" viewBox="0 0 52 52" fill="none" xmlns="http://www.w3.org/2000/svg">
<g clip-path="url(#clip0_764_586)">
<path fill-rule="evenodd" clip-rule="evenodd" d="M26 52C11.6635 52 0 40.3365 0 26C0 11.6635 11.6635 0 26 0C40.3365 0 52 11.6635 52 26C52 40.3365 40.3365 52 26 52ZM39.4832 35.1336C39.6374 35.1334 39.7852 35.0721 39.8942 34.9631C40.0032 34.8541 40.0645 34.7063 40.0647 34.5522V18.2294L26.8362 28.7342C26.5914 28.9287 26.2955 29.0259 25.9999 29.0259C25.7042 29.0259 25.4085 28.9286 25.1636 28.7342L11.9352 18.2294V34.5522C11.9354 34.7063 11.9967 34.8541 12.1057 34.9631C12.2147 35.0721 12.3625 35.1334 12.5167 35.1336H39.4832ZM37.456 16.8664L26 25.9638L14.5439 16.8664H37.456ZM42.7544 17.4478V34.5524C42.7544 36.356 41.2869 37.8235 39.4832 37.8235H12.5167C10.7129 37.8235 9.24564 36.356 9.24564 34.5524V17.4478C9.24564 15.6442 10.713 14.1768 12.5167 14.1768H39.4832C41.2869 14.1767 42.7544 15.6442 42.7544 17.4478Z" fill="#292929"/>
</g>
<defs>
<clipPath id="clip0_764_586">
<rect width="52" height="52" fill="white"/>
</clipPath>
</defs>
</svg>
