<svg width="46" height="44" viewBox="0 0 46 44" fill="none" xmlns="http://www.w3.org/2000/svg">
<path d="M45.0442 33.4954L28.7946 3.62455C26.1839 -0.770694 19.8196 -0.776533 17.2053 3.62455L0.956556 33.4954C-1.71234 37.9866 1.51889 43.6739 6.74986 43.6739H39.2496C44.4761 43.6739 47.7131 37.9912 45.0442 33.4954ZM23 38.2833C21.5142 38.2833 20.3047 37.0738 20.3047 35.588C20.3047 34.1022 21.5142 32.8927 23 32.8927C24.4858 32.8927 25.6953 34.1022 25.6953 35.588C25.6953 37.0738 24.4858 38.2833 23 38.2833ZM25.6953 27.5021C25.6953 28.9879 24.4858 30.1974 23 30.1974C21.5142 30.1974 20.3047 28.9879 20.3047 27.5021V14.0255C20.3047 12.5397 21.5142 11.3302 23 11.3302C24.4858 11.3302 25.6953 12.5397 25.6953 14.0255V27.5021Z" fill="#292929"/>
</svg>
