<svg width="18" height="17" viewBox="0 0 18 17" fill="none" xmlns="http://www.w3.org/2000/svg">
<path d="M12.4054 5.82857C9.32108 5.82857 6.81081 8.33486 6.81081 11.4143C6.81081 14.4937 9.32108 17 12.4054 17C15.4897 17 18 14.4937 18 11.4143C18 8.33486 15.4897 5.82857 12.4054 5.82857ZM14.7561 11.049L11.8372 12.9919C11.6965 13.0847 11.5281 13.1263 11.3602 13.1097C11.1924 13.0931 11.0355 13.0192 10.9158 12.9006L9.94281 11.9291C9.80592 11.7925 9.72901 11.6071 9.72901 11.4138C9.72901 11.2205 9.80592 11.0351 9.94281 10.8985C10.0797 10.7618 10.2654 10.685 10.459 10.685C10.6526 10.685 10.8382 10.7618 10.9751 10.8985L11.5249 11.4473L13.9456 9.83571C14.0253 9.78139 14.115 9.74339 14.2095 9.72391C14.3041 9.70444 14.4015 9.70387 14.4962 9.72224C14.591 9.74062 14.6811 9.77758 14.7614 9.83097C14.8418 9.88436 14.9107 9.95313 14.9642 10.0333C15.0178 10.1135 15.0548 10.2034 15.0733 10.298C15.0918 10.3926 15.0913 10.4899 15.0718 10.5843C15.0524 10.6786 15.0144 10.7682 14.96 10.8478C14.9057 10.9274 14.836 10.9955 14.7551 11.0481L14.7561 11.049ZM6.32432 0V2.67143C6.32432 2.80743 6.43135 2.91429 6.56757 2.91429H9.48649C9.6227 2.91429 9.72973 2.80743 9.72973 2.67143V0H6.32432ZM13.3784 0H11.1892V2.67143C11.1892 3.604 10.4205 4.37143 9.48649 4.37143H6.56757C5.63351 4.37143 4.86486 3.604 4.86486 2.67143V0H2.67568C1.19676 0 0 1.19486 0 2.67143V14.3286C0 15.8051 1.19676 17 2.67568 17H8.12432C7.26252 16.345 6.56388 15.5001 6.08289 14.5313C5.60189 13.5624 5.35154 12.4957 5.35135 11.4143C5.35135 7.52857 8.51351 4.37143 12.4054 4.37143C13.7481 4.37143 14.9935 4.74057 16.0541 5.40114V2.67143C16.0541 1.19486 14.8573 0 13.3784 0Z" fill="#38BE60"/>
</svg>
