<svg width="17" height="17" viewBox="0 0 17 17" fill="none" xmlns="http://www.w3.org/2000/svg">
<path fill-rule="evenodd" clip-rule="evenodd" d="M3.71875 0C3.29606 0 2.89068 0.167912 2.5918 0.466799C2.29291 0.765685 2.125 1.17106 2.125 1.59375V9.34044C2.89881 9.02705 3.74777 8.94851 4.56594 9.11461C5.3841 9.28071 6.13523 9.6841 6.72556 10.2744C7.31589 10.8648 7.71929 11.6159 7.88539 12.4341C8.05149 13.2522 7.97295 14.1012 7.65956 14.875H15.4062C15.6156 14.875 15.8229 14.8338 16.0163 14.7536C16.2097 14.6735 16.3854 14.5561 16.5334 14.408C16.6814 14.26 16.7988 14.0842 16.8788 13.8908C16.9589 13.6974 17.0001 13.4901 17 13.2807V1.59375C17 1.17106 16.8321 0.765685 16.5332 0.466799C16.2343 0.167912 15.8289 0 15.4062 0L3.71875 0ZM11.6875 10.0938C11.6875 10.2346 11.7435 10.3698 11.8431 10.4694C11.9427 10.569 12.0779 10.625 12.2188 10.625H13.8125C13.9534 10.625 14.0885 10.569 14.1882 10.4694C14.2878 10.3698 14.3438 10.2346 14.3438 10.0938C14.3438 9.95285 14.2878 9.81773 14.1882 9.7181C14.0885 9.61847 13.9534 9.5625 13.8125 9.5625H12.2188C12.0779 9.5625 11.9427 9.61847 11.8431 9.7181C11.7435 9.81773 11.6875 9.95285 11.6875 10.0938ZM9.03125 12.2188C8.89035 12.2188 8.75523 12.1628 8.6556 12.0632C8.55597 11.9635 8.5 11.8284 8.5 11.6875C8.5 11.5466 8.55597 11.4115 8.6556 11.3118C8.75523 11.2122 8.89035 11.1562 9.03125 11.1562H13.8125C13.9534 11.1562 14.0885 11.2122 14.1882 11.3118C14.2878 11.4115 14.3438 11.5466 14.3438 11.6875C14.3438 11.8284 14.2878 11.9635 14.1882 12.0632C14.0885 12.1628 13.9534 12.2188 13.8125 12.2188H9.03125ZM7.96875 1.0625V4.25H11.1562V1.0625H7.96875Z" fill="#C53434"/>
<path fill-rule="evenodd" clip-rule="evenodd" d="M3.71875 9.5625C2.73248 9.5625 1.7866 9.9543 1.0892 10.6517C0.391796 11.3491 0 12.295 0 13.2812C0 14.2675 0.391796 15.2134 1.0892 15.9108C1.7866 16.6082 2.73248 17 3.71875 17C4.70502 17 5.6509 16.6082 6.3483 15.9108C7.0457 15.2134 7.4375 14.2675 7.4375 13.2812C7.4375 12.295 7.0457 11.3491 6.3483 10.6517C5.6509 9.9543 4.70502 9.5625 3.71875 9.5625ZM3.03184 11.8432C2.93165 11.7464 2.79745 11.6928 2.65816 11.694C2.51887 11.6953 2.38563 11.7511 2.28713 11.8496C2.18863 11.9481 2.13276 12.0814 2.13155 12.2207C2.13034 12.36 2.18388 12.4941 2.28066 12.5943L2.96756 13.2812L2.28066 13.9682C2.22992 14.0172 2.18944 14.0758 2.1616 14.1406C2.13376 14.2054 2.1191 14.2751 2.11849 14.3457C2.11788 14.4162 2.13132 14.4862 2.15803 14.5514C2.18474 14.6167 2.22419 14.676 2.27407 14.7259C2.32395 14.7758 2.38327 14.8153 2.44856 14.842C2.51384 14.8687 2.5838 14.8821 2.65434 14.8815C2.72488 14.8809 2.79459 14.8662 2.8594 14.8384C2.92422 14.8106 2.98284 14.7701 3.03184 14.7193L3.71875 14.0324L4.40566 14.7193C4.50585 14.8161 4.64005 14.8697 4.77934 14.8685C4.91863 14.8672 5.05187 14.8114 5.15037 14.7129C5.24887 14.6144 5.30474 14.4811 5.30595 14.3418C5.30716 14.2025 5.25361 14.0684 5.15684 13.9682L4.46994 13.2812L5.15684 12.5943C5.25361 12.4941 5.30716 12.36 5.30595 12.2207C5.30474 12.0814 5.24887 11.9481 5.15037 11.8496C5.05187 11.7511 4.91863 11.6953 4.77934 11.694C4.64005 11.6928 4.50585 11.7464 4.40566 11.8432L3.71875 12.5301L3.03184 11.8432Z" fill="#C53434"/>
</svg>
