<svg width="21" height="17" viewBox="0 0 21 17" fill="none" xmlns="http://www.w3.org/2000/svg">
<path fill-rule="evenodd" clip-rule="evenodd" d="M14.2867 17V9.10954L21 5.16725V12.7556C21 12.9473 20.9059 13.113 20.7428 13.2088L14.2867 17ZM6.21108 13.0784H0.794473C0.355729 13.0784 0 12.7165 0 12.2703C0 11.824 0.355729 11.4622 0.794473 11.4622H6.18282C7.11453 11.4622 7.11453 9.94878 6.18282 9.94878H2.9448C2.50605 9.94878 2.15029 9.58696 2.15029 9.1407C2.15029 8.69445 2.50605 8.33263 2.9448 8.33263H5.47735C6.40906 8.33263 6.40906 6.81919 5.47735 6.81919H0.794514C0.35577 6.81919 4.10156e-05 6.45737 4.10156e-05 6.01112C4.10156e-05 5.56486 0.35577 5.20304 0.794514 5.20304H6.23679L12.8893 9.10966V17L6.21108 13.0784ZM6.86967 3.93766L13.588 7.88287L20.3063 3.93762L13.6009 0H9.20136C8.76262 0 8.40689 0.361819 8.40689 0.808074C8.40689 1.25433 8.76262 1.61615 9.20136 1.61615H10.1311C10.2165 1.61615 10.2881 1.67201 10.3102 1.7559C10.3322 1.8398 10.2978 1.92457 10.2238 1.96804L6.86967 3.93766ZM6.48724 0C6.92598 0 7.28171 0.361819 7.28171 0.808074C7.28171 1.25433 6.92598 1.61615 6.48724 1.61615H1.65818C1.21944 1.61615 0.863666 1.25433 0.863666 0.808074C0.863666 0.361819 1.21939 0 1.65818 0H6.48724Z" fill="#A38E4A"/>
</svg>
