<svg width="48" height="48" viewBox="0 0 48 48" fill="none" xmlns="http://www.w3.org/2000/svg">
<circle cx="23.5332" cy="23.5332" r="23.5332" fill="#FAD049"/>
<path fill-rule="evenodd" clip-rule="evenodd" d="M23.9291 35.9541C25.7983 35.0104 33.5859 30.6338 33.5859 23.2177C33.5859 17.6636 29.0834 13.1611 23.5293 13.1611C17.9752 13.1611 13.4727 17.6636 13.4727 23.2177C13.4727 30.6338 21.2602 35.0104 23.1295 35.9541C23.3838 36.0825 23.6748 36.0825 23.9291 35.9541ZM23.5293 27.5277C25.9096 27.5277 27.8392 25.5981 27.8392 23.2178C27.8392 20.8374 25.9096 18.9078 23.5293 18.9078C21.1489 18.9078 19.2193 20.8374 19.2193 23.2178C19.2193 25.5981 21.1489 27.5277 23.5293 27.5277Z" fill="#292929"/>
<path d="M23.9291 35.9541L24.1544 36.4005L23.9291 35.9541ZM23.1295 35.9541L22.9041 36.4005L23.1295 35.9541ZM33.0859 23.2177C33.0859 26.7393 31.2381 29.5668 29.1083 31.6561C26.9797 33.7442 24.6164 35.047 23.7037 35.5078L24.1544 36.4005C25.1109 35.9175 27.576 34.5601 29.8086 32.37C32.0399 30.1811 34.0859 27.1122 34.0859 23.2177H33.0859ZM23.5293 13.6611C28.8072 13.6611 33.0859 17.9398 33.0859 23.2177H34.0859C34.0859 17.3875 29.3595 12.6611 23.5293 12.6611V13.6611ZM13.9727 23.2177C13.9727 17.9398 18.2513 13.6611 23.5293 13.6611V12.6611C17.699 12.6611 12.9727 17.3875 12.9727 23.2177H13.9727ZM23.3548 35.5078C22.4421 35.047 20.0788 33.7442 17.9503 31.6561C15.8205 29.5668 13.9727 26.7393 13.9727 23.2177H12.9727C12.9727 27.1122 15.0186 30.1811 17.25 32.37C19.4825 34.5601 21.9476 35.9175 22.9041 36.4005L23.3548 35.5078ZM23.7037 35.5078C23.5911 35.5646 23.4674 35.5646 23.3548 35.5078L22.9041 36.4005C23.3001 36.6004 23.7584 36.6004 24.1544 36.4005L23.7037 35.5078ZM27.3392 23.2178C27.3392 25.3219 25.6335 27.0277 23.5293 27.0277V28.0277C26.1857 28.0277 28.3392 25.8742 28.3392 23.2178H27.3392ZM23.5293 19.4078C25.6335 19.4078 27.3392 21.1136 27.3392 23.2178H28.3392C28.3392 20.5613 26.1857 18.4078 23.5293 18.4078V19.4078ZM19.7193 23.2178C19.7193 21.1136 21.4251 19.4078 23.5293 19.4078V18.4078C20.8728 18.4078 18.7193 20.5613 18.7193 23.2178H19.7193ZM23.5293 27.0277C21.4251 27.0277 19.7193 25.3219 19.7193 23.2178H18.7193C18.7193 25.8742 20.8728 28.0277 23.5293 28.0277V27.0277Z" fill="#292929"/>
</svg>
