<svg width="14" height="16" viewBox="0 0 14 16" fill="none" xmlns="http://www.w3.org/2000/svg">
<path d="M7.45568 14.4677L7.68894 14.91L7.45568 14.4677ZM6.65661 14.4677L6.42335 14.91H6.42335L6.65661 14.4677ZM12.3895 7.16658C12.3895 9.04205 11.4508 10.5754 10.3081 11.7479C9.16549 12.9205 7.85785 13.6903 7.22241 14.0255L7.68894 14.91C8.36989 14.5508 9.77914 13.7236 11.0243 12.4458C12.2694 11.1681 13.3895 9.39802 13.3895 7.16658H12.3895ZM7.05614 1.83325C10.0017 1.83325 12.3895 4.22107 12.3895 7.16658H13.3895C13.3895 3.66878 10.5539 0.833252 7.05614 0.833252V1.83325ZM1.72281 7.16658C1.72281 4.22107 4.11062 1.83325 7.05614 1.83325V0.833252C3.55834 0.833252 0.722809 3.66878 0.722809 7.16658H1.72281ZM6.88987 14.0255C6.25444 13.6903 4.94679 12.9205 3.80415 11.7479C2.66148 10.5754 1.72281 9.04205 1.72281 7.16658H0.722809C0.722809 9.39802 1.84285 11.1681 3.08798 12.4458C4.33314 13.7236 5.7424 14.5508 6.42335 14.91L6.88987 14.0255ZM7.22241 14.0255C7.11644 14.0814 6.99585 14.0814 6.88987 14.0255L6.42335 14.91C6.82128 15.1199 7.29101 15.1199 7.68894 14.91L7.22241 14.0255ZM9.05614 7.16659C9.05614 8.27116 8.16071 9.16659 7.05614 9.16659V10.1666C8.71299 10.1666 10.0561 8.82344 10.0561 7.16659H9.05614ZM7.05614 5.16659C8.16071 5.16659 9.05614 6.06202 9.05614 7.16659H10.0561C10.0561 5.50974 8.71299 4.16659 7.05614 4.16659V5.16659ZM5.05614 7.16659C5.05614 6.06202 5.95157 5.16659 7.05614 5.16659V4.16659C5.39929 4.16659 4.05614 5.50974 4.05614 7.16659H5.05614ZM7.05614 9.16659C5.95157 9.16659 5.05614 8.27116 5.05614 7.16659H4.05614C4.05614 8.82344 5.39929 10.1666 7.05614 10.1666V9.16659Z" fill="#292929"/>
</svg>
