<svg width="25" height="25" viewBox="0 0 25 25" fill="none" xmlns="http://www.w3.org/2000/svg">
<path d="M3.35352 23.0631C3.71226 24.1857 4.75288 24.9999 5.97808 24.9999H19.0222C20.2473 24.9999 21.2879 24.1857 21.6467 23.0631H3.35352ZM20.9729 4.01675L17.7643 0.808154C17.6336 0.677428 17.4903 0.559975 17.3364 0.45752V4.427C17.3365 4.47045 17.3539 4.51207 17.3846 4.54274C17.4154 4.57342 17.4571 4.59064 17.5005 4.59062H21.4139C21.2947 4.38301 21.1467 4.19062 20.9729 4.01675Z" fill="#E0B117"/>
<path d="M21.7802 6.05581H17.5001C16.6016 6.05581 15.8709 5.3252 15.8709 4.4271V0.000976562C15.8519 0 15.8324 0 15.8133 0H5.97754C4.45674 0 3.21924 1.23755 3.21924 2.75879V10.2831H21.7803L21.7802 6.05581ZM12.5261 14.9852H11.8561V18.4403H12.5261C12.9777 18.4403 13.2036 18.1895 13.2036 17.6875V15.7379C13.2035 15.2362 12.9777 14.9852 12.5261 14.9852ZM8.31826 14.9852H7.57305V16.5734H8.31826C8.76992 16.5734 8.9958 16.3226 8.9958 15.8207V15.7379C8.9957 15.2362 8.76987 14.9852 8.31826 14.9852Z" fill="#E0B117"/>
<path d="M21.876 11.7483H3.12427C2.10371 11.7483 1.27344 12.5786 1.27344 13.5991V19.7472C1.27344 20.7677 2.10371 21.598 3.12427 21.598H21.8759C22.8965 21.598 23.7268 20.7677 23.7268 19.7472V13.5991C23.7268 12.5786 22.8965 11.7483 21.876 11.7483ZM10.1705 15.7304H10.1704C10.1704 16.3276 10.001 16.768 9.6623 17.0515C9.32358 17.335 8.87568 17.4768 8.31865 17.4768H7.57344V19.1027C7.57344 19.2182 7.51567 19.3072 7.40029 19.3699C7.28481 19.4327 7.14683 19.464 6.98628 19.464C6.82559 19.464 6.68765 19.4327 6.57222 19.3699C6.45674 19.3072 6.39907 19.2182 6.39907 19.1027V14.3151C6.39907 14.2199 6.43916 14.1371 6.51948 14.0667C6.59971 13.9965 6.70508 13.9614 6.83564 13.9614H8.39385C8.93076 13.9614 9.36118 14.1006 9.68481 14.3792C10.0085 14.6577 10.1704 15.0956 10.1704 15.6927V15.7304H10.1705ZM14.3782 17.6876C14.3782 18.2999 14.21 18.749 13.8739 19.035C13.5376 19.321 13.0884 19.4641 12.5265 19.4641H11.1941C11.0435 19.4641 10.9205 19.4291 10.8252 19.3587C10.7299 19.2885 10.6822 19.2057 10.6822 19.1103V14.3152C10.6822 14.22 10.7298 14.1372 10.8252 14.0668C10.9205 13.9966 11.0436 13.9615 11.1941 13.9615H12.5265C13.0884 13.9615 13.5376 14.1045 13.8739 14.3906C14.21 14.6766 14.3782 15.1258 14.3782 15.738V17.6876ZM18.507 14.8347C18.4442 14.9351 18.3576 14.9853 18.2474 14.9853H16.2978V16.2574H17.4344C17.5447 16.2574 17.6313 16.3026 17.6941 16.3929C17.7568 16.4832 17.7882 16.5912 17.7882 16.7166C17.7882 16.832 17.7581 16.9349 17.6979 17.0252C17.6376 17.1155 17.5498 17.1606 17.4344 17.1606H16.2978V19.1027C16.2978 19.2182 16.24 19.3073 16.1246 19.37C16.0091 19.4328 15.8711 19.4641 15.7106 19.4641C15.5499 19.4641 15.412 19.4328 15.2965 19.37C15.1811 19.3073 15.1234 19.2182 15.1234 19.1027V14.3228C15.1234 14.2074 15.1735 14.1183 15.274 14.0555C15.3743 13.9928 15.4948 13.9614 15.6353 13.9614H18.2473C18.3626 13.9614 18.4506 14.0116 18.5108 14.112C18.571 14.2125 18.6011 14.3303 18.6011 14.4658C18.6011 14.6114 18.5697 14.7343 18.507 14.8347Z" fill="#E0B117"/>
</svg>
