<svg width="26" height="26" viewBox="0 0 26 26" fill="none" xmlns="http://www.w3.org/2000/svg">
<g clip-path="url(#clip0_716_492)">
<path d="M3.4873 23.9859C3.86039 25.1534 4.94264 26.0002 6.21685 26.0002H19.7827C21.0569 26.0002 22.1391 25.1534 22.5122 23.9859H3.4873ZM21.8114 4.17767L18.4745 0.840734C18.3386 0.704779 18.1895 0.582628 18.0295 0.476074V4.60434C18.0297 4.64952 18.0477 4.69281 18.0797 4.72471C18.1117 4.75661 18.155 4.77452 18.2002 4.7745H22.2701C22.1462 4.55858 21.9922 4.3585 21.8114 4.17767Z" fill="#292929"/>
<path d="M22.6516 6.29804H18.2003C17.2658 6.29804 16.5059 5.5382 16.5059 4.60418V0.00101562C16.4861 0 16.4658 0 16.446 0H6.21678C4.63514 0 3.34814 1.28705 3.34814 2.86914V10.6944H22.6516L22.6516 6.29804ZM13.0273 15.5846H12.3305V19.1779H13.0273C13.497 19.1779 13.7318 18.917 13.7318 18.3951V16.3675C13.7318 15.8456 13.4969 15.5846 13.0273 15.5846ZM8.65113 15.5846H7.87611V17.2364H8.65113C9.12086 17.2364 9.35577 16.9755 9.35577 16.4535V16.3674C9.35567 15.8456 9.12081 15.5846 8.65113 15.5846Z" fill="#292929"/>
<path d="M22.7509 12.2183H3.24908C2.1877 12.2183 1.32422 13.0817 1.32422 14.1431V20.5371C1.32422 21.5985 2.1877 22.462 3.24908 22.462H22.7508C23.8122 22.462 24.6757 21.5985 24.6757 20.5371V14.1431C24.6757 13.0817 23.8122 12.2183 22.7509 12.2183ZM10.5771 16.3596C10.5771 16.9808 10.4009 17.4388 10.0486 17.7336C9.69637 18.0284 9.23056 18.1759 8.65124 18.1759H7.87622V19.8668C7.87622 19.9869 7.81614 20.0796 7.69615 20.1448C7.57605 20.2101 7.43254 20.2426 7.26557 20.2426C7.09845 20.2426 6.955 20.2101 6.83495 20.1448C6.71485 20.0796 6.65488 19.9869 6.65488 19.8668V14.8878C6.65488 14.7887 6.69657 14.7026 6.78011 14.6295C6.86354 14.5564 6.97313 14.5199 7.10891 14.5199H8.72945C9.28784 14.5199 9.73547 14.6647 10.0721 14.9544C10.4087 15.2441 10.577 15.6995 10.577 16.3205V16.3596H10.5771ZM14.9532 18.3951C14.9532 19.0319 14.7783 19.499 14.4287 19.7964C14.0789 20.0939 13.6118 20.2427 13.0274 20.2427H11.6417C11.4851 20.2427 11.3572 20.2063 11.2581 20.1331C11.1589 20.0601 11.1093 19.974 11.1093 19.8748V14.8879C11.1093 14.7888 11.1589 14.7027 11.2581 14.6296C11.3572 14.5565 11.4851 14.52 11.6417 14.52H13.0274C13.6118 14.52 14.079 14.6688 14.4287 14.9662C14.7783 15.2637 14.9532 15.7309 14.9532 16.3675V18.3951ZM19.2472 15.4281C19.1819 15.5326 19.0918 15.5847 18.9771 15.5847H16.9495V16.9078H18.1316C18.2463 16.9078 18.3364 16.9547 18.4017 17.0486C18.4669 17.1426 18.4996 17.2549 18.4996 17.3853C18.4996 17.5054 18.4682 17.6123 18.4056 17.7062C18.343 17.8002 18.2516 17.8471 18.1316 17.8471H16.9495V19.8669C16.9495 19.987 16.8894 20.0796 16.7694 20.1448C16.6493 20.2101 16.5058 20.2427 16.3389 20.2427C16.1717 20.2427 16.0283 20.2101 15.9082 20.1448C15.7881 20.0796 15.7282 19.987 15.7282 19.8669V14.8957C15.7282 14.7757 15.7803 14.6831 15.8848 14.6178C15.9891 14.5526 16.1144 14.5199 16.2605 14.5199H18.9771C19.097 14.5199 19.1885 14.5721 19.2511 14.6765C19.3137 14.781 19.345 14.9036 19.345 15.0445C19.345 15.1959 19.3123 15.3237 19.2472 15.4281Z" fill="#292929"/>
</g>
<defs>
<clipPath id="clip0_716_492">
<rect width="26" height="26" fill="white"/>
</clipPath>
</defs>
</svg>
