<svg width="28" height="28" viewBox="0 0 28 28" fill="none" xmlns="http://www.w3.org/2000/svg">
<g clip-path="url(#clip0_1630_2361)">
<path d="M11.2436 11.2474C11.8443 10.6467 11.8443 9.67269 11.2436 9.07196C10.6429 8.47124 9.6689 8.47124 9.06818 9.07196C8.46745 9.67269 8.46745 10.6467 9.06818 11.2474C9.6689 11.8481 10.6429 11.8481 11.2436 11.2474Z" fill="white"/>
<path d="M17.839 19.3787C18.6886 19.3787 19.3773 18.69 19.3773 17.8405C19.3773 16.9909 18.6886 16.3022 17.839 16.3022C16.9895 16.3022 16.3008 16.9909 16.3008 17.8405C16.3008 18.69 16.9895 19.3787 17.839 19.3787Z" fill="white"/>
<path d="M25.6643 11.2727C25.1675 10.7587 24.9394 10.0571 25.0392 9.34952L25.4647 6.33006C25.4932 6.13265 25.4435 5.93193 25.3262 5.77062C25.2089 5.60931 25.0333 5.50015 24.8367 5.46638L21.833 4.93963C21.1276 4.81582 20.5304 4.38138 20.1949 3.74881L18.7677 1.05649C18.5719 0.687295 18.1239 0.542483 17.751 0.725577L15.013 2.06575C14.3691 2.38091 13.6308 2.38091 12.987 2.06575L10.2489 0.725577C10.143 0.673867 10.0268 0.646919 9.90897 0.646772C9.76951 0.646821 9.63272 0.685024 9.51342 0.757245C9.39412 0.829465 9.29686 0.93295 9.23216 1.05649L7.80574 3.74805C7.47483 4.37236 6.86255 4.8173 6.16698 4.93887L3.16403 5.46562C2.96727 5.4994 2.79147 5.60863 2.67403 5.77007C2.55659 5.93151 2.5068 6.13241 2.53523 6.33001L2.9607 9.34947C3.06051 10.0571 2.83241 10.7579 2.33639 11.2727L0.217305 13.466C0.0781023 13.609 0.000143171 13.8006 1.97001e-07 14.0001C-0.000142777 14.1996 0.0775417 14.3913 0.216539 14.5345L2.33557 16.7278C2.8323 17.2418 3.0604 17.9434 2.96059 18.651L2.53512 21.6705C2.50655 21.8679 2.55622 22.0687 2.67353 22.23C2.79085 22.3913 2.96654 22.5005 3.16316 22.5341L6.16687 23.0609C6.87223 23.1847 7.46947 23.6191 7.80492 24.2517L9.2321 26.944C9.32504 27.1208 9.48332 27.2543 9.67323 27.3161C9.86314 27.3779 10.0697 27.3631 10.2489 27.2749L12.9869 25.9348C13.6307 25.6196 14.3691 25.6196 15.0128 25.9348L17.7509 27.2749C17.9301 27.3631 18.1366 27.3778 18.3265 27.316C18.5164 27.2542 18.6747 27.1208 18.7676 26.944L20.194 24.2525C20.525 23.6289 21.1372 23.1832 21.8328 23.0616L24.8358 22.5349C25.0325 22.5011 25.2083 22.3919 25.3258 22.2304C25.4432 22.069 25.493 21.8681 25.4646 21.6705L25.0391 18.651C24.9393 17.9434 25.1667 17.2426 25.6634 16.7279L27.7824 14.5346H27.7832C27.9221 14.3914 27.9998 14.1998 27.9998 14.0003C27.9998 13.8008 27.9221 13.6092 27.7832 13.4661L25.6643 11.2727ZM7.08458 10.1599C7.08458 8.46408 8.46374 7.08491 10.1595 7.08491C11.8554 7.08491 13.2345 8.46408 13.2345 10.1599C13.2345 11.8557 11.8554 13.2349 10.1595 13.2349C8.46374 13.2349 7.08458 11.8557 7.08458 10.1599ZM9.93298 19.1537C9.78291 19.3038 9.58631 19.3788 9.38971 19.3788C9.19311 19.3788 8.99651 19.3038 8.84645 19.1537C8.54632 18.8536 8.54632 18.3673 8.84645 18.0672L18.0669 8.84678C18.367 8.54666 18.8533 8.54666 19.1534 8.84678C19.4535 9.1469 19.4535 9.63319 19.1534 9.93331L9.93298 19.1537ZM17.8403 20.9156C16.1445 20.9156 14.7653 19.5364 14.7653 17.8406C14.7653 16.1448 16.1445 14.7657 17.8403 14.7657C19.5361 14.7657 20.9153 16.1448 20.9153 17.8406C20.9153 19.5364 19.5361 20.9156 17.8403 20.9156Z" fill="white"/>
</g>
<defs>
<clipPath id="clip0_1630_2361">
<rect width="28" height="28" fill="white"/>
</clipPath>
</defs>
</svg>
