<svg width="100" height="85" viewBox="0 0 100 85" fill="none" xmlns="http://www.w3.org/2000/svg">
<circle cx="66.5" cy="33.5" r="33.5" fill="#FFDD00"/>
<g clip-path="url(#clip0_557_2531)">
<path d="M57.5801 57.5806V54.8387H27.4189V57.5806H30.1609V80.8869C30.1609 83.1548 32.0065 84.9998 34.2738 84.9998H50.7253C52.9932 84.9998 54.8382 83.1548 54.8382 80.8869V57.5806H57.5801ZM52.0963 80.8869C52.0963 81.2505 51.9518 81.5992 51.6947 81.8564C51.4376 82.1135 51.0889 82.2579 50.7253 82.2579H34.2738C33.5173 82.2579 32.9028 81.644 32.9028 80.8869V76.774H41.1286V74.0321H32.9028V71.2902H38.3866V68.5483H32.9028V65.8064H41.1286V63.0644H32.9028V57.5806H52.0963V80.8869Z" fill="#2F2B78"/>
<path d="M79.5161 61.4712V54.8387H80.8871C83.155 54.8387 85 52.9937 85 50.7258C85 48.4586 83.155 46.6129 80.8871 46.6129H65.1431C63.9014 45.0063 62.2038 43.8041 60.2409 43.2378L49.355 40.0983V37.3389C50.8164 36.1657 51.9542 34.639 52.6607 32.9033H53.4679C56.4922 32.9033 58.9517 30.4438 58.9517 27.4194V16.4517C58.9517 7.38042 51.5722 0.000183105 42.5002 0.000183105C37.9174 0.000183105 33.5347 2.12552 30.6897 5.7051C29.319 6.25245 28.144 7.19837 27.3167 8.42056C26.4893 9.64276 26.0476 11.085 26.0486 12.5609V27.4194C26.0486 30.4438 28.5086 32.9033 31.5325 32.9033H32.3405C33.0469 34.6388 34.1844 36.1655 35.6453 37.3389V40.0981L24.7599 43.2376C22.7972 43.804 21.101 45.0063 19.8579 46.6129H4.11322C1.84599 46.6129 0.000330393 48.4586 0.000330393 50.7258C0.000330393 52.9937 1.84599 54.8387 4.11322 54.8387H5.48418V60.3239C2.00656 62.9332 -0.0298308 67.0159 0.000330393 71.3893C0.0525983 78.6893 6.02914 84.7916 13.3223 84.9944C13.4522 84.9971 13.5842 84.9998 13.716 84.9998C17.3074 84.9998 20.6873 83.6302 23.2685 81.1186C25.9461 78.5166 27.4196 75.0249 27.4196 71.2902C27.4196 66.9571 25.3839 62.9111 21.9357 60.3239V54.8387H23.3067C25.5746 54.8387 27.4196 52.9937 27.4196 50.7258C27.4196 48.6299 25.8378 46.9149 23.8088 46.6638C24.3423 46.3317 24.9087 46.0499 25.5198 45.8726L31.9141 44.0276L34.8929 54.4538L42.5002 48.3694L50.1081 54.4551L53.0869 44.029L59.4812 45.8738C60.0937 46.0513 60.6586 46.333 61.1922 46.6652C59.1632 46.9149 57.5807 48.6299 57.5807 50.7258C57.5807 52.9937 59.4264 54.8387 61.6936 54.8387H63.0646V61.4712L57.8947 76.9843C57.6866 77.6056 57.5805 78.2564 57.5807 78.9116C57.5807 82.2692 60.312 84.9998 63.6697 84.9998H78.9103C82.2694 84.9998 85 82.2692 85 78.9116C85 78.2549 84.8949 77.6074 84.6867 76.9855L79.5161 61.4712ZM21.356 79.1532C19.2145 81.2364 16.4191 82.3583 13.3967 82.2526C7.5641 82.0919 2.78373 77.2085 2.74225 71.3713C2.73694 70.6241 2.82588 69.8918 2.96726 69.1748C3.76362 69.5919 4.76597 69.9193 6.16161 69.9193C8.49258 69.9193 9.7369 69.0149 10.7377 68.2866C11.6233 67.6426 12.2627 67.1773 13.7019 67.1773C15.1431 67.1773 15.7818 67.6426 16.6675 68.2866C17.6695 69.0149 18.9146 69.9193 21.2463 69.9193C22.6473 69.9193 23.6529 69.5906 24.4521 69.1721C24.5873 69.8644 24.6776 70.5693 24.6776 71.2902C24.6776 74.2779 23.4988 77.0705 21.356 79.1532ZM24.6776 50.7258C24.6776 51.0894 24.5332 51.4381 24.2761 51.6952C24.019 51.9523 23.6703 52.0967 23.3067 52.0967H19.1938V61.7651L19.8017 62.1721C21.4537 63.2787 22.7283 64.7908 23.5665 66.5193C22.9492 66.9182 22.3213 67.1773 21.2461 67.1773C19.8056 67.1773 19.165 66.7129 18.2794 66.0681C17.2799 65.3404 16.0327 64.4354 13.7021 64.4354C11.3716 64.4354 10.1266 65.3404 9.1258 66.0681C8.24153 66.7129 7.60146 67.1773 6.16161 67.1773C5.0926 67.1773 4.4647 66.9182 3.85016 66.5206C4.68816 64.7922 5.96419 63.2787 7.61757 62.1708L8.2261 61.7651V54.8387H16.4519V52.0967H4.11322C3.35679 52.0967 2.74225 51.4829 2.74225 50.7258C2.74225 49.9694 3.35679 49.3548 4.11322 49.3548H23.3067C24.0638 49.3548 24.6776 49.9694 24.6776 50.7258ZM53.4679 30.1614H53.3736C53.4296 29.7122 53.4679 29.2557 53.4679 28.7904V24.6775C54.98 24.6775 56.2098 25.9073 56.2098 27.4194C56.2098 28.9316 54.98 30.1614 53.4679 30.1614ZM31.9662 8.15501L32.3718 8.01911L32.6296 7.67911C34.9479 4.58759 38.6383 2.74211 42.5002 2.74211C50.0598 2.74211 56.2098 8.89259 56.2098 16.4517V22.6982C55.3997 22.2261 54.4721 21.9356 53.4679 21.9356V19.1937H52.0969C47.972 19.1937 43.8824 17.8313 40.5808 15.3553L39.4215 14.4844L38.1569 16.3822C37.5811 17.2477 36.8 17.9574 35.8834 18.448C34.9668 18.9385 33.9431 19.1947 32.9034 19.1937H31.5325V21.9356C30.5291 21.9356 29.6011 22.2261 28.7905 22.6982V12.5609C28.7905 10.5593 30.0672 8.78942 31.9662 8.15484V8.15501ZM31.5325 30.1614C30.021 30.1614 28.7905 28.9316 28.7905 27.4194C28.7905 25.9073 30.021 24.6775 31.5325 24.6775V28.7904C31.5325 29.2557 31.5714 29.7122 31.6276 30.1614H31.5325ZM34.2744 28.7904V21.8331C36.5951 21.4794 38.6873 20.2369 40.1083 18.3683C43.2727 20.4287 46.9592 21.6532 50.7259 21.8921V28.7904C50.7259 33.3271 47.0368 37.0162 42.5002 37.0162C37.9642 37.0162 34.2744 33.3271 34.2744 28.7904ZM42.5002 39.7581C43.9104 39.7578 45.3073 39.4837 46.613 38.9509V40.5615L42.5002 44.6744L38.3873 40.5615V38.9508C39.6931 39.4835 41.0899 39.7576 42.5002 39.7581ZM34.5489 43.2677L36.6194 42.67L40.4483 46.4991L36.3985 49.739L34.5489 43.2677ZM48.6025 49.739L44.5527 46.4991L48.3816 42.67L50.4521 43.2677L48.6025 49.739ZM61.6936 52.0967C60.9372 52.0967 60.3227 51.4829 60.3227 50.7258C60.3227 49.9694 60.9372 49.3548 61.6936 49.3548H80.8871C81.2507 49.3548 81.5994 49.4993 81.8565 49.7564C82.1136 50.0135 82.2581 50.3622 82.2581 50.7258C82.2581 51.0894 82.1136 51.4381 81.8565 51.6952C81.5994 51.9523 81.2507 52.0967 80.8871 52.0967H68.5484V54.8387H76.7742V61.9158L78.5201 67.1499C77.3091 67.0831 76.6745 66.6605 75.8598 66.0681C74.8603 65.3404 73.6131 64.4354 71.2825 64.4354C68.952 64.4354 67.707 65.3404 66.7062 66.0681C65.8961 66.6579 65.2622 67.079 64.0613 67.1485L65.8065 61.9158V52.0967H61.6936ZM78.9117 82.2579H63.6695C61.8239 82.2579 60.3225 80.7571 60.3225 78.9116C60.3225 78.5507 60.3808 78.1959 60.4939 77.8532L63.1494 69.8865C63.3456 69.8992 63.535 69.9193 63.7418 69.9193C66.0728 69.9193 67.3171 69.0149 68.3179 68.2866C69.2036 67.6426 69.843 67.1773 71.2821 67.1773C72.7234 67.1773 73.3621 67.6426 74.2477 68.2866C75.2497 69.0149 76.4949 69.9193 78.8265 69.9193C79.0408 69.9193 79.2227 69.8771 79.4229 69.8617L82.0867 77.852C82.2005 78.1947 82.2581 78.5508 82.2581 78.9104C82.2581 80.7572 80.7572 82.2581 78.9117 82.2581V82.2579Z" fill="#2F2B78"/>
</g>
<defs>
<clipPath id="clip0_557_2531">
<rect width="85" height="85" fill="white"/>
</clipPath>
</defs>
</svg>
