<svg width="100" height="85" viewBox="0 0 100 85" fill="none" xmlns="http://www.w3.org/2000/svg">
<circle cx="66.5" cy="33.5" r="33.5" fill="#FFDD00"/>
<g clip-path="url(#clip0_557_2402)">
<path d="M82.3438 55.1172C81.9915 55.1172 81.6537 54.9773 81.4046 54.7282C81.1556 54.4791 81.0156 54.1413 81.0156 53.7891V47.1484C81.0156 46.7962 81.1556 46.4584 81.4046 46.2093C81.6537 45.9602 81.9915 45.8203 82.3438 45.8203C82.696 45.8203 83.0338 45.9602 83.2829 46.2093C83.5319 46.4584 83.6719 46.7962 83.6719 47.1484V53.7891C83.6719 54.1413 83.5319 54.4791 83.2829 54.7282C83.0338 54.9773 82.696 55.1172 82.3438 55.1172Z" fill="#2F2B78"/>
<path d="M82.3447 48.4766C82.0976 48.4769 81.8554 48.4084 81.6452 48.2786C81.4349 48.1489 81.2651 47.9631 81.1547 47.7421L79.8265 45.0859C79.6691 44.7706 79.6433 44.4057 79.7549 44.0715C79.8665 43.7372 80.1063 43.461 80.4215 43.3035C80.7368 43.1461 81.1017 43.1203 81.4359 43.2319C81.7702 43.3435 82.0464 43.5833 82.2039 43.8985L83.532 46.5548C83.6332 46.7573 83.681 46.9823 83.6707 47.2085C83.6605 47.4347 83.5926 47.6545 83.4735 47.8471C83.3544 48.0396 83.188 48.1985 82.9902 48.3087C82.7924 48.4189 82.5697 48.4767 82.3433 48.4766H82.3447Z" fill="#2F2B78"/>
<path d="M81.0139 45.8203C80.7876 45.8202 80.5651 45.7623 80.3675 45.652C80.1699 45.5417 80.0037 45.3828 79.8848 45.1903C79.7658 44.9977 79.6981 44.778 79.6879 44.552C79.6777 44.3259 79.7254 44.101 79.8266 43.8985L81.1547 41.2423C81.2327 41.0862 81.3406 40.947 81.4724 40.8326C81.6042 40.7182 81.7572 40.6309 81.9227 40.5756C82.0882 40.5204 82.2629 40.4983 82.437 40.5106C82.611 40.5229 82.781 40.5693 82.9371 40.6473C83.0932 40.7252 83.2324 40.8332 83.3468 40.9649C83.4611 41.0967 83.5484 41.2497 83.6037 41.4152C83.659 41.5807 83.6811 41.7555 83.6688 41.9295C83.6565 42.1036 83.61 42.2735 83.5321 42.4296L82.2039 45.0859C82.0935 45.3068 81.9237 45.4926 81.7134 45.6224C81.5032 45.7521 81.261 45.8207 81.0139 45.8203Z" fill="#2F2B78"/>
<path d="M82.345 43.1641C82.1433 43.1637 81.9444 43.1176 81.7632 43.029C81.582 42.9404 81.4234 42.8118 81.2993 42.6529C81.1751 42.494 81.0888 42.3089 81.0468 42.1117C81.0047 41.9144 81.0081 41.7102 81.0567 41.5145L82.3848 36.202C82.4808 35.8724 82.7007 35.5928 82.9984 35.4218C83.2961 35.2508 83.6485 35.2017 83.9816 35.2848C84.3147 35.368 84.6027 35.5769 84.7851 35.8677C84.9675 36.1586 85.0302 36.5088 84.96 36.8448L83.6319 42.1573C83.5604 42.4449 83.3947 42.7003 83.1613 42.8827C82.9278 43.0652 82.64 43.1642 82.3436 43.1641H82.345Z" fill="#2F2B78"/>
<path d="M83.6728 37.8516C83.4257 37.8519 83.1835 37.7834 82.9733 37.6536C82.7631 37.5239 82.5932 37.3381 82.4828 37.1171L81.1547 34.4609C81.0767 34.3048 81.0302 34.1348 81.0179 33.9608C81.0057 33.7867 81.0278 33.612 81.083 33.4465C81.1383 33.281 81.2256 33.128 81.34 32.9962C81.4543 32.8644 81.5936 32.7565 81.7497 32.6785C81.9058 32.6006 82.0757 32.5541 82.2497 32.5418C82.4238 32.5295 82.5986 32.5516 82.7641 32.6069C82.9296 32.6621 83.0826 32.7494 83.2143 32.8638C83.3461 32.9782 83.454 33.1174 83.532 33.2735L84.8601 35.9298C84.9613 36.1323 85.0091 36.3574 84.9988 36.5835C84.9886 36.8097 84.9207 37.0295 84.8016 37.2221C84.6825 37.4146 84.5161 37.5735 84.3183 37.6837C84.1205 37.7939 83.8979 37.8517 83.6715 37.8516H83.6728Z" fill="#2F2B78"/>
<path d="M82.3435 35.1953C82.0808 35.1953 81.8241 35.1173 81.6057 34.9714C81.3874 34.8254 81.2172 34.618 81.1167 34.3754C81.0162 34.1327 80.9899 33.8657 81.0411 33.6082C81.0924 33.3506 81.2188 33.1139 81.4045 32.9282L82.7326 31.6001C82.8551 31.4732 83.0017 31.372 83.1637 31.3024C83.3257 31.2328 83.5 31.1962 83.6764 31.1947C83.8527 31.1931 84.0276 31.2267 84.1908 31.2935C84.354 31.3603 84.5023 31.4589 84.627 31.5836C84.7517 31.7083 84.8504 31.8566 84.9171 32.0198C84.9839 32.183 85.0175 32.3579 85.016 32.5343C85.0145 32.7106 84.9778 32.8849 84.9082 33.0469C84.8386 33.209 84.7374 33.3555 84.6106 33.478L83.2825 34.8062C83.1593 34.9297 83.0129 35.0276 82.8518 35.0944C82.6906 35.1612 82.5179 35.1955 82.3435 35.1953Z" fill="#2F2B78"/>
<path d="M83.6728 33.8672C83.4257 33.8676 83.1835 33.799 82.9733 33.6693C82.7631 33.5395 82.5932 33.3537 82.4828 33.1327L81.1547 30.4765C80.9972 30.1612 80.9714 29.7963 81.083 29.4621C81.1946 29.1278 81.4344 28.8516 81.7497 28.6941C82.0649 28.5367 82.4298 28.5109 82.7641 28.6225C83.0983 28.7341 83.3745 28.9739 83.532 29.2891L84.8601 31.9454C84.9613 32.1479 85.0091 32.373 84.9988 32.5992C84.9886 32.8253 84.9207 33.0451 84.8016 33.2377C84.6825 33.4303 84.5161 33.5892 84.3183 33.6993C84.1205 33.8095 83.8979 33.8673 83.6715 33.8672H83.6728Z" fill="#2F2B78"/>
<path d="M77.0294 32.5391C76.7056 32.5384 76.3932 32.4194 76.1509 32.2045C75.9087 31.9896 75.7533 31.6936 75.7139 31.3722C75.6746 31.0508 75.7541 30.726 75.9374 30.4591C76.1207 30.1922 76.3953 30.0014 76.7094 29.9227L82.0219 28.5945C82.1926 28.5477 82.3709 28.5355 82.5464 28.5586C82.7219 28.5817 82.891 28.6396 83.0437 28.729C83.1965 28.8184 83.3299 28.9374 83.436 29.079C83.5422 29.2207 83.6189 29.3821 83.6617 29.5539C83.7046 29.7256 83.7127 29.9042 83.6855 30.0791C83.6584 30.254 83.5965 30.4217 83.5036 30.5724C83.4108 30.723 83.2887 30.8536 83.1446 30.9564C83.0005 31.0592 82.8374 31.1322 82.6647 31.1711L77.3522 32.4992C77.2467 32.5258 77.1383 32.5391 77.0294 32.5391Z" fill="#2F2B78"/>
<path d="M73.0466 36.5234C72.784 36.5234 72.5272 36.4455 72.3089 36.2995C72.0905 36.1536 71.9203 35.9462 71.8198 35.7035C71.7193 35.4609 71.693 35.1939 71.7443 34.9363C71.7955 34.6787 71.9219 34.4421 72.1076 34.2563L76.092 30.2719C76.2145 30.1451 76.3611 30.0439 76.5231 29.9743C76.6851 29.9047 76.8594 29.8681 77.0357 29.8665C77.2121 29.865 77.387 29.8986 77.5502 29.9654C77.7134 30.0322 77.8617 30.1308 77.9864 30.2555C78.1111 30.3802 78.2097 30.5285 78.2765 30.6917C78.3433 30.8549 78.3769 31.0298 78.3754 31.2062C78.3738 31.3825 78.3372 31.5568 78.2676 31.7188C78.198 31.8808 78.0968 32.0274 77.97 32.1499L73.9856 36.1343C73.8624 36.2578 73.716 36.3558 73.5549 36.4225C73.3938 36.4893 73.221 36.5236 73.0466 36.5234Z" fill="#2F2B78"/>
<path d="M73.0465 36.5234C72.9015 36.5234 72.7574 36.4997 72.6201 36.453L68.7008 35.1249C68.3713 35.0087 68.1009 34.7673 67.9481 34.453C67.7953 34.1388 67.7726 33.777 67.8847 33.446C67.9969 33.1151 68.235 32.8417 68.5474 32.6851C68.8597 32.5285 69.2212 32.5013 69.5535 32.6095L73.4728 33.9376C73.7708 34.0387 74.0233 34.2423 74.1852 34.5123C74.347 34.7822 74.4078 35.1008 74.3566 35.4114C74.3054 35.7219 74.1456 36.0042 73.9056 36.2078C73.6657 36.4115 73.3612 36.5234 73.0465 36.5234Z" fill="#2F2B78"/>
<path d="M58.4383 40.5078C58.1385 40.5084 57.8473 40.4075 57.6121 40.2216C57.3769 40.0357 57.2115 39.7757 57.1428 39.4838C57.0742 39.192 57.1063 38.8855 57.234 38.6142C57.3616 38.3429 57.5773 38.1228 57.8459 37.9897L68.536 32.6772C68.8511 32.5235 69.2141 32.5007 69.546 32.6136C69.8778 32.7264 70.1516 32.966 70.3076 33.2799C70.4636 33.5938 70.4891 33.9567 70.3787 34.2893C70.2683 34.622 70.0308 34.8976 69.718 35.0559L59.028 40.3684C58.8448 40.4599 58.643 40.5076 58.4383 40.5078ZM31.8758 40.5078C31.8023 40.508 31.729 40.5018 31.6566 40.4892L23.6879 39.1611C23.5117 39.1372 23.3421 39.0782 23.1892 38.9876C23.0362 38.897 22.903 38.7766 22.7975 38.6335C22.6919 38.4905 22.6162 38.3277 22.5747 38.1548C22.5333 37.9819 22.5269 37.8025 22.5561 37.6271C22.5853 37.4517 22.6493 37.284 22.7445 37.1339C22.8397 36.9837 22.9641 36.8542 23.1103 36.753C23.2564 36.6518 23.4214 36.581 23.5955 36.5448C23.7695 36.5085 23.9491 36.5076 24.1235 36.542L32.0922 37.8702C32.4202 37.9256 32.7154 38.1021 32.9195 38.3647C33.1236 38.6273 33.2217 38.9569 33.1945 39.2884C33.1673 39.6198 33.0167 39.929 32.7726 40.1548C32.5284 40.3806 32.2083 40.5066 31.8758 40.5078Z" fill="#2F2B78"/>
<path d="M23.9045 39.1797C23.6989 39.1796 23.4962 39.1319 23.3122 39.0402L20.6559 37.7121C20.4998 37.6342 20.3606 37.5262 20.2462 37.3944C20.1318 37.2627 20.0445 37.1097 19.9893 36.9442C19.934 36.7787 19.9119 36.6039 19.9242 36.4298C19.9365 36.2558 19.9829 36.0859 20.0609 35.9298C20.1389 35.7737 20.2468 35.6345 20.3786 35.5201C20.5103 35.4057 20.6633 35.3184 20.8288 35.2631C20.9944 35.2079 21.1691 35.1858 21.3432 35.1981C21.5172 35.2104 21.6872 35.2568 21.8432 35.3348L24.4995 36.6629C24.7675 36.7965 24.9825 37.0167 25.1096 37.2878C25.2367 37.5589 25.2685 37.865 25.1997 38.1565C25.131 38.4479 24.9658 38.7076 24.7309 38.8933C24.496 39.0791 24.2053 39.18 23.9058 39.1797H23.9045Z" fill="#2F2B78"/>
<path d="M21.25 37.8516C21.0396 37.8514 20.8324 37.8013 20.6452 37.7053C20.458 37.6094 20.2963 37.4704 20.1733 37.2997C20.0504 37.1291 19.9698 36.9316 19.938 36.7237C19.9063 36.5158 19.9244 36.3033 19.9909 36.1037L21.319 32.1194C21.3691 31.9479 21.4532 31.7882 21.5663 31.65C21.6795 31.5117 21.8194 31.3977 21.9776 31.3148C22.1359 31.2319 22.3092 31.1818 22.4873 31.1674C22.6654 31.1531 22.8445 31.1748 23.014 31.2313C23.1835 31.2878 23.3399 31.3779 23.4737 31.4962C23.6076 31.6145 23.7162 31.7587 23.793 31.9199C23.8698 32.0812 23.9134 32.2563 23.921 32.4348C23.9285 32.6133 23.9 32.7915 23.8372 32.9587L22.509 36.9431C22.421 37.2075 22.252 37.4374 22.0261 37.6005C21.8001 37.7635 21.5286 37.8513 21.25 37.8516Z" fill="#2F2B78"/>
<path d="M22.5782 33.8672C22.239 33.8682 21.9123 33.7389 21.6657 33.5059L19.0095 30.9998C18.8826 30.88 18.7806 30.7365 18.7091 30.5773C18.6377 30.4181 18.5984 30.2465 18.5933 30.0721C18.5883 29.8977 18.6176 29.724 18.6797 29.561C18.7417 29.3979 18.8353 29.2487 18.955 29.1218C19.0748 28.9949 19.2183 28.8929 19.3775 28.8215C19.5367 28.75 19.7084 28.7107 19.8828 28.7056C20.0571 28.7006 20.2308 28.7299 20.3939 28.792C20.5569 28.854 20.7061 28.9476 20.833 29.0673L23.4893 31.5722C23.683 31.7546 23.8175 31.9911 23.8752 32.2509C23.933 32.5106 23.9113 32.7818 23.8131 33.0291C23.7149 33.2765 23.5447 33.4886 23.3245 33.638C23.1043 33.7875 22.8443 33.8673 22.5782 33.8672Z" fill="#2F2B78"/>
<path d="M13.2805 37.8516C13.0164 37.8518 12.7583 37.7733 12.5391 37.6261C12.3198 37.479 12.1494 37.2698 12.0497 37.0253C11.9499 36.7809 11.9252 36.5122 11.9789 36.2537C12.0325 35.9951 12.162 35.7584 12.3508 35.5738L18.9914 29.0833C19.1161 28.9612 19.2636 28.8649 19.4256 28.7998C19.5875 28.7347 19.7607 28.7022 19.9352 28.704C20.1097 28.7059 20.2821 28.7421 20.4426 28.8106C20.6032 28.8791 20.7486 28.9785 20.8707 29.1032C20.9928 29.2279 21.0891 29.3754 21.1542 29.5374C21.2193 29.6993 21.2518 29.8725 21.25 30.047C21.2481 30.2215 21.2119 30.3939 21.1434 30.5544C21.0749 30.715 20.9755 30.8604 20.8508 30.9825L14.2101 37.473C13.962 37.7165 13.6281 37.8524 13.2805 37.8516Z" fill="#2F2B78"/>
<path d="M7.96937 40.5078C7.66982 40.5084 7.37887 40.4077 7.14376 40.2221C6.90866 40.0364 6.74322 39.7768 6.6743 39.4853C6.60538 39.1937 6.63704 38.8875 6.76413 38.6162C6.89121 38.345 7.10627 38.1246 7.37437 37.991L12.6869 35.3348C13.0021 35.1773 13.367 35.1516 13.7013 35.2631C14.0355 35.3747 14.3118 35.6145 14.4692 35.9298C14.6267 36.245 14.6524 36.6099 14.5409 36.9442C14.4293 37.2784 14.1895 37.5547 13.8742 37.7121L8.56172 40.3684C8.3777 40.46 8.17495 40.5078 7.96937 40.5078Z" fill="#2F2B78"/>
<path d="M6.64184 45.8203C6.44019 45.82 6.24125 45.7738 6.06008 45.6853C5.87891 45.5967 5.72026 45.4681 5.59614 45.3092C5.47201 45.1503 5.38567 44.9652 5.34365 44.7679C5.30162 44.5707 5.30501 44.3665 5.35356 44.1708L6.68168 38.8583C6.71821 38.6833 6.78969 38.5175 6.89182 38.3708C6.99396 38.2241 7.12466 38.0996 7.27609 38.0046C7.42752 37.9096 7.59656 37.8462 7.77309 37.8181C7.94962 37.79 8.13 37.7978 8.30343 37.8411C8.47686 37.8844 8.63977 37.9623 8.78239 38.07C8.92501 38.1778 9.04441 38.3132 9.13345 38.4682C9.22248 38.6232 9.2793 38.7946 9.30052 38.9721C9.32174 39.1495 9.30691 39.3295 9.25692 39.5011L7.92879 44.8136C7.85731 45.1012 7.69162 45.3565 7.45814 45.539C7.22466 45.7214 6.93683 45.8205 6.64051 45.8203H6.64184Z" fill="#2F2B78"/>
<path d="M7.96705 51.1328C7.67097 51.1327 7.38344 51.0335 7.15023 50.851C6.91702 50.6686 6.75153 50.4134 6.6801 50.1261L5.35197 44.8136C5.30516 44.6429 5.29295 44.4645 5.31604 44.2891C5.33913 44.1136 5.39707 43.9445 5.48645 43.7917C5.57582 43.6389 5.69484 43.5055 5.83649 43.3994C5.97815 43.2933 6.13958 43.2166 6.31132 43.1737C6.48306 43.1309 6.66162 43.1228 6.83653 43.1499C7.01143 43.1771 7.17915 43.2389 7.32981 43.3318C7.48048 43.4247 7.61106 43.5468 7.71388 43.6908C7.8167 43.8349 7.88968 43.9981 7.92854 44.1708L9.25666 49.4833C9.30524 49.6791 9.30861 49.8834 9.26651 50.0807C9.22441 50.2781 9.13795 50.4632 9.01367 50.6222C8.8894 50.7811 8.73058 50.9097 8.54925 50.9982C8.36791 51.0867 8.16882 51.1327 7.96705 51.1328Z" fill="#2F2B78"/>
<path d="M3.9843 52.4609C3.66944 52.4602 3.36508 52.3477 3.1255 52.1434C2.88593 51.9391 2.72674 51.6563 2.67632 51.3455C2.6259 51.0347 2.68754 50.7161 2.85025 50.4465C3.01295 50.177 3.26613 49.974 3.56462 49.8738L7.54899 48.5456C7.71621 48.4827 7.8944 48.4542 8.07289 48.4618C8.25139 48.4694 8.42651 48.5129 8.5878 48.5898C8.74908 48.6666 8.89319 48.7752 9.01153 48.9091C9.12986 49.0429 9.21996 49.1993 9.27646 49.3688C9.33296 49.5383 9.35468 49.7174 9.34032 49.8955C9.32597 50.0736 9.27583 50.2469 9.19291 50.4051C9.11 50.5634 8.99601 50.7033 8.85777 50.8165C8.71953 50.9296 8.55987 51.0137 8.38836 51.0638L4.40399 52.3919C4.26872 52.4373 4.127 52.4607 3.9843 52.4609Z" fill="#2F2B78"/>
<path d="M3.98263 52.4609C3.77705 52.4609 3.57429 52.4131 3.39028 52.3215L0.734031 50.9934C0.418776 50.8359 0.17898 50.5597 0.0673959 50.2254C-0.0441882 49.8912 -0.0184201 49.5263 0.139031 49.211C0.296483 48.8958 0.57272 48.656 0.906975 48.5444C1.24123 48.4328 1.60612 48.4586 1.92138 48.616L4.57763 49.9441C4.84562 50.0777 5.06062 50.2979 5.18773 50.569C5.31483 50.8402 5.34659 51.1463 5.27784 51.4377C5.2091 51.7292 5.04388 51.9888 4.80901 52.1746C4.57414 52.3603 4.28339 52.4612 3.98395 52.4609H3.98263Z" fill="#2F2B78"/>
<path d="M6.64117 61.8867C6.4207 61.887 6.20361 61.8325 6.00953 61.7279C5.81544 61.6233 5.65047 61.472 5.52953 61.2877L0.217033 53.1901C0.121281 53.0443 0.0551856 52.881 0.0225206 52.7097C-0.0101444 52.5383 -0.00873921 52.3622 0.0266559 52.1914C0.0620509 52.0206 0.130743 51.8584 0.228809 51.7142C0.326876 51.5699 0.452397 51.4464 0.598205 51.3506C0.744013 51.2549 0.907254 51.1888 1.07861 51.1561C1.24996 51.1235 1.42607 51.1249 1.59687 51.1603C1.76768 51.1957 1.92985 51.2643 2.07411 51.3624C2.21837 51.4605 2.34191 51.586 2.43766 51.7318L7.75016 59.8294C7.88166 60.0296 7.95657 60.2616 7.96696 60.5009C7.97734 60.7402 7.92282 60.9779 7.80917 61.1887C7.69551 61.3996 7.52695 61.5758 7.32133 61.6986C7.11572 61.8215 6.8807 61.8865 6.64117 61.8867Z" fill="#2F2B78"/>
<path d="M1.32812 53.7891C0.975884 53.7891 0.638071 53.6491 0.388999 53.4001C0.139927 53.151 0 52.8132 0 52.4609V49.8047C0 49.4524 0.139927 49.1146 0.388999 48.8656C0.638071 48.6165 0.975884 48.4766 1.32812 48.4766C1.68037 48.4766 2.01818 48.6165 2.26725 48.8656C2.51632 49.1146 2.65625 49.4524 2.65625 49.8047V52.4609C2.65625 52.8132 2.51632 53.151 2.26725 53.4001C2.01818 53.6491 1.68037 53.7891 1.32812 53.7891ZM6.85445 61.7578C6.59649 61.7578 6.34411 61.6827 6.12814 61.5416C5.91216 61.4006 5.74195 61.1996 5.63828 60.9634C5.53461 60.7272 5.50197 60.4659 5.54436 60.2115C5.58674 59.957 5.70231 59.7204 5.87695 59.5305L8.31938 56.8743C8.43745 56.7459 8.57966 56.6421 8.73787 56.5687C8.89608 56.4953 9.0672 56.4537 9.24147 56.4465C9.41573 56.4392 9.58972 56.4663 9.7535 56.5263C9.91728 56.5862 10.0676 56.6779 10.196 56.7959C10.3244 56.914 10.4282 57.0562 10.5016 57.2144C10.5751 57.3726 10.6166 57.5438 10.6239 57.718C10.6311 57.8923 10.604 58.0663 10.5441 58.2301C10.4841 58.3938 10.3925 58.5442 10.2744 58.6726L7.83195 61.3288C7.70771 61.4643 7.55664 61.5723 7.38835 61.6462C7.22006 61.72 7.03824 61.7581 6.85445 61.7578Z" fill="#2F2B78"/>
<path d="M9.2975 59.1016C8.99794 59.1021 8.70699 59.0014 8.47189 58.8158C8.23679 58.6302 8.07134 58.3705 8.00243 58.079C7.93351 57.7875 7.96516 57.4812 8.09225 57.21C8.21934 56.9387 8.4344 56.7184 8.7025 56.5848L11.3587 55.2566C11.5148 55.1787 11.6848 55.1322 11.8588 55.1199C12.0329 55.1076 12.2076 55.1298 12.3731 55.185C12.5387 55.2403 12.6917 55.3276 12.8234 55.442C12.9552 55.5563 13.0631 55.6955 13.1411 55.8516C13.2191 56.0077 13.2655 56.1777 13.2778 56.3517C13.2901 56.5258 13.268 56.7005 13.2127 56.866C13.1575 57.0316 13.0702 57.1846 12.9558 57.3163C12.8414 57.4481 12.7022 57.556 12.5461 57.634L9.88984 58.9621C9.70583 59.0538 9.50307 59.1015 9.2975 59.1016Z" fill="#2F2B78"/>
<path d="M11.954 57.7734C11.707 57.7738 11.4648 57.7053 11.2545 57.5755C11.0443 57.4458 10.8745 57.26 10.764 57.039L9.43591 54.3827C9.27845 54.0675 9.25269 53.7026 9.36427 53.3683C9.47586 53.0341 9.71565 52.7578 10.0309 52.6004C10.3462 52.4429 10.7111 52.4172 11.0453 52.5288C11.3796 52.6403 11.6558 52.8801 11.8133 53.1954L13.1414 55.8516C13.2426 56.0542 13.2903 56.2792 13.2801 56.5054C13.2698 56.7316 13.2019 56.9514 13.0828 57.144C12.9637 57.3365 12.7974 57.4954 12.5996 57.6056C12.4018 57.7158 12.1791 57.7735 11.9527 57.7734H11.954Z" fill="#2F2B78"/>
<path d="M15.9375 55.1172H10.625C10.2728 55.1172 9.93495 54.9773 9.68587 54.7282C9.4368 54.4791 9.29688 54.1413 9.29688 53.7891C9.29688 53.4368 9.4368 53.099 9.68587 52.8499C9.93495 52.6009 10.2728 52.4609 10.625 52.4609H15.9375C16.2897 52.4609 16.6276 52.6009 16.8766 52.8499C17.1257 53.099 17.2656 53.4368 17.2656 53.7891C17.2656 54.1413 17.1257 54.4791 16.8766 54.7282C16.6276 54.9773 16.2897 55.1172 15.9375 55.1172Z" fill="#2F2B78"/>
<path d="M19.9212 59.1016C19.7467 59.1017 19.574 59.0675 19.4129 59.0007C19.2517 58.9339 19.1054 58.8359 18.9822 58.7124L14.9978 54.7281C14.7559 54.4776 14.622 54.1421 14.6251 53.7938C14.6281 53.4456 14.7678 53.1125 15.014 52.8663C15.2602 52.62 15.5934 52.4803 15.9416 52.4773C16.2898 52.4743 16.6253 52.6082 16.8758 52.8501L20.8602 56.8345C21.0458 57.0202 21.1723 57.2568 21.2235 57.5144C21.2747 57.772 21.2484 58.039 21.1479 58.2817C21.0474 58.5243 20.8773 58.7317 20.6589 58.8777C20.4405 59.0236 20.1838 59.1015 19.9212 59.1016Z" fill="#2F2B78"/>
<path d="M19.9216 59.1016C19.659 59.1015 19.4022 59.0236 19.1839 58.8777C18.9655 58.7317 18.7953 58.5243 18.6948 58.2817C18.5943 58.039 18.568 57.772 18.6193 57.5144C18.6705 57.2568 18.7969 57.0202 18.9826 56.8345L21.6389 54.1782C21.8893 53.9363 22.2248 53.8024 22.5731 53.8054C22.9213 53.8085 23.2544 53.9481 23.5006 54.1944C23.7469 54.4406 23.8866 54.7737 23.8896 55.122C23.8926 55.4702 23.7588 55.8057 23.5168 56.0562L20.8606 58.7124C20.7374 58.8359 20.5911 58.9339 20.4299 59.0007C20.2688 59.0675 20.096 59.1018 19.9216 59.1016Z" fill="#2F2B78"/>
<path d="M27.8914 57.7734C27.7826 57.7735 27.6742 57.7601 27.5687 57.7336L22.2562 56.4055C21.9216 56.3137 21.6362 56.0947 21.4611 55.7953C21.2859 55.4958 21.2348 55.1397 21.3188 54.8031C21.4028 54.4665 21.6151 54.1762 21.9104 53.9941C22.2057 53.812 22.5605 53.7528 22.899 53.8289L28.2115 55.157C28.5256 55.2358 28.8002 55.4265 28.9835 55.6935C29.1668 55.9604 29.2463 56.2852 29.2069 56.6066C29.1676 56.928 29.0122 57.224 28.7699 57.4389C28.5277 57.6538 28.2153 57.7728 27.8914 57.7734Z" fill="#2F2B78"/>
<path d="M29.2197 60.4297C28.9726 60.4301 28.7304 60.3615 28.5202 60.2318C28.3099 60.102 28.1401 59.9162 28.0297 59.6952L26.7015 57.039C26.5441 56.7237 26.5183 56.3588 26.6299 56.0246C26.7415 55.6903 26.9813 55.4141 27.2965 55.2566C27.6118 55.0992 27.9767 55.0734 28.3109 55.185C28.6452 55.2966 28.9214 55.5364 29.0789 55.8516L30.407 58.5079C30.5082 58.7104 30.556 58.9355 30.5457 59.1617C30.5355 59.3878 30.4676 59.6076 30.3485 59.8002C30.2294 59.9928 30.063 60.1517 29.8652 60.2618C29.6674 60.372 29.4447 60.4298 29.2183 60.4297H29.2197Z" fill="#2F2B78"/>
<path d="M31.875 60.4297H29.2188C28.8665 60.4297 28.5287 60.2898 28.2796 60.0407C28.0306 59.7916 27.8906 59.4538 27.8906 59.1016C27.8906 58.7493 28.0306 58.4115 28.2796 58.1624C28.5287 57.9134 28.8665 57.7734 29.2188 57.7734H31.875C32.2272 57.7734 32.5651 57.9134 32.8141 58.1624C33.0632 58.4115 33.2031 58.7493 33.2031 59.1016C33.2031 59.4538 33.0632 59.7916 32.8141 60.0407C32.5651 60.2898 32.2272 60.4297 31.875 60.4297Z" fill="#2F2B78"/>
<path d="M33.2025 64.4141C32.9238 64.4138 32.6523 64.326 32.4264 64.163C32.2004 63.9999 32.0314 63.77 31.9434 63.5056L30.6153 59.5212C30.5524 59.354 30.5239 59.1758 30.5315 58.9973C30.5391 58.8188 30.5826 58.6437 30.6594 58.4824C30.7363 58.3212 30.8449 58.177 30.9787 58.0587C31.1126 57.9404 31.2689 57.8503 31.4384 57.7938C31.6079 57.7373 31.787 57.7156 31.9651 57.7299C32.1432 57.7443 32.3165 57.7944 32.4748 57.8773C32.633 57.9602 32.7729 58.0742 32.8861 58.2125C32.9993 58.3507 33.0834 58.5104 33.1334 58.6819L34.4615 62.6662C34.528 62.8658 34.5461 63.0783 34.5144 63.2862C34.4827 63.4941 34.402 63.6916 34.2791 63.8622C34.1561 64.0329 33.9944 64.1719 33.8073 64.2678C33.6201 64.3638 33.4128 64.4139 33.2025 64.4141Z" fill="#2F2B78"/>
<path d="M37.1854 67.0703C36.9235 67.0701 36.6675 66.9925 36.4496 66.8472L32.4652 64.1909C32.1721 63.9954 31.9687 63.6915 31.8998 63.3461C31.8308 63.0006 31.9018 62.6419 32.0973 62.3488C32.2928 62.0558 32.5967 61.8523 32.9422 61.7834C33.2876 61.7144 33.6464 61.7854 33.9394 61.9809L37.9238 64.6372C38.1611 64.7954 38.3411 65.0258 38.4373 65.2942C38.5335 65.5627 38.5407 65.855 38.4579 66.1279C38.3751 66.4008 38.2066 66.6397 37.9774 66.8095C37.7483 66.9792 37.4705 67.0707 37.1854 67.0703Z" fill="#2F2B78"/>
<path d="M37.1874 67.0703C36.8726 67.0696 36.5682 66.957 36.3286 66.7527C36.0891 66.5484 35.9299 66.2656 35.8794 65.9549C35.829 65.6441 35.8907 65.3255 36.0534 65.0559C36.2161 64.7863 36.4693 64.5833 36.7677 64.4831L40.7521 63.155C41.0819 63.0588 41.4361 63.0941 41.7404 63.2536C42.0447 63.413 42.2753 63.6841 42.384 64.01C42.4926 64.3359 42.4707 64.6912 42.323 65.0013C42.1752 65.3114 41.913 65.5522 41.5915 65.6731L37.6071 67.0012C37.4718 67.0467 37.3301 67.07 37.1874 67.0703Z" fill="#2F2B78"/>
<path d="M43.8264 67.0703C43.6208 67.0703 43.418 67.0225 43.234 66.9309L40.5778 65.6027C40.4217 65.5248 40.2825 65.4168 40.1681 65.2851C40.0537 65.1533 39.9664 65.0003 39.9111 64.8348C39.8559 64.6693 39.8338 64.4945 39.8461 64.3205C39.8584 64.1464 39.9048 63.9765 39.9828 63.8204C40.0607 63.6643 40.1687 63.5251 40.3005 63.4107C40.4322 63.2963 40.5852 63.209 40.7507 63.1538C40.9162 63.0985 41.091 63.0764 41.265 63.0887C41.4391 63.101 41.609 63.1474 41.7651 63.2254L44.4214 64.5535C44.6894 64.6871 44.9044 64.9073 45.0315 65.1784C45.1586 65.4495 45.1903 65.7557 45.1216 66.0471C45.0528 66.3385 44.8876 66.5982 44.6528 66.7839C44.4179 66.9697 44.1271 67.0706 43.8277 67.0703H43.8264Z" fill="#2F2B78"/>
<path d="M43.8278 67.0703C43.5652 67.0703 43.3085 66.9923 43.0901 66.8464C42.8718 66.7005 42.7016 66.4931 42.6011 66.2504C42.5006 66.0078 42.4743 65.7408 42.5255 65.4832C42.5767 65.2256 42.7032 64.989 42.8889 64.8032L44.217 63.4751C44.4675 63.2332 44.803 63.0993 45.1512 63.1023C45.4994 63.1053 45.8325 63.245 46.0788 63.4913C46.325 63.7375 46.4647 64.0706 46.4677 64.4188C46.4707 64.7671 46.3369 65.1026 46.095 65.3531L44.7668 66.6812C44.6437 66.8047 44.4973 66.9027 44.3362 66.9694C44.175 67.0362 44.0023 67.0705 43.8278 67.0703Z" fill="#2F2B78"/>
<path d="M53.125 68.3984C52.9823 68.3982 52.8405 68.3748 52.7053 68.3294L44.7365 65.6731C44.565 65.6231 44.4054 65.539 44.2671 65.4258C44.1289 65.3127 44.0149 65.1728 43.932 65.0145C43.8491 64.8563 43.7989 64.6829 43.7846 64.5048C43.7702 64.3268 43.7919 64.1476 43.8484 63.9781C43.9049 63.8087 43.995 63.6523 44.1134 63.5185C44.2317 63.3846 44.3758 63.276 44.5371 63.1992C44.6984 63.1223 44.8735 63.0788 45.052 63.0712C45.2305 63.0636 45.4087 63.0921 45.5759 63.155L53.5447 65.8113C53.8431 65.9115 54.0963 66.1145 54.259 66.384C54.4217 66.6536 54.4834 66.9722 54.4329 67.283C54.3825 67.5938 54.2233 67.8766 53.9838 68.0809C53.7442 68.2852 53.4398 68.3977 53.125 68.3984Z" fill="#2F2B78"/>
<path d="M53.1256 68.3984C52.8261 68.399 52.5351 68.2983 52.3 68.1127C52.0649 67.9271 51.8995 67.6674 51.8306 67.3759C51.7616 67.0844 51.7933 66.7781 51.9204 66.5069C52.0475 66.2356 52.2625 66.0153 52.5306 65.8816L55.1869 64.5535C55.5021 64.3961 55.867 64.3703 56.2013 64.4819C56.3668 64.5371 56.5198 64.6244 56.6515 64.7388C56.7833 64.8532 56.8913 64.9924 56.9692 65.1485C57.0472 65.3046 57.0936 65.4745 57.1059 65.6486C57.1182 65.8226 57.0961 65.9974 57.0409 66.1629C56.9856 66.3284 56.8983 66.4814 56.7839 66.6132C56.6695 66.745 56.5303 66.8529 56.3742 66.9309L53.718 68.259C53.534 68.3506 53.3312 68.3984 53.1256 68.3984Z" fill="#2F2B78"/>
<path d="M58.4375 67.0703H55.7812C55.429 67.0703 55.0912 66.9304 54.8421 66.6813C54.5931 66.4322 54.4531 66.0944 54.4531 65.7422C54.4531 65.3899 54.5931 65.0521 54.8421 64.8031C55.0912 64.554 55.429 64.4141 55.7812 64.4141H58.4375C58.7897 64.4141 59.1276 64.554 59.3766 64.8031C59.6257 65.0521 59.7656 65.3899 59.7656 65.7422C59.7656 66.0944 59.6257 66.4322 59.3766 66.6813C59.1276 66.9304 58.7897 67.0703 58.4375 67.0703Z" fill="#2F2B78"/>
<path d="M58.4375 67.0703C58.2271 67.0701 58.0198 67.02 57.8327 66.9241C57.6455 66.8282 57.4838 66.6891 57.3608 66.5185C57.2379 66.3478 57.1573 66.1504 57.1255 65.9425C57.0938 65.7345 57.1119 65.522 57.1784 65.3225L58.5065 61.3381C58.5566 61.1666 58.6407 61.007 58.7538 60.8687C58.867 60.7305 59.0069 60.6165 59.1651 60.5336C59.3234 60.4507 59.4967 60.4005 59.6748 60.3862C59.8529 60.3718 60.032 60.3935 60.2015 60.45C60.371 60.5065 60.5274 60.5966 60.6612 60.715C60.795 60.8333 60.9036 60.9774 60.9805 61.1387C61.0573 61.3 61.1009 61.4751 61.1085 61.6536C61.116 61.8321 61.0875 62.0103 61.0247 62.1775L59.6965 66.1619C59.6085 66.4262 59.4395 66.6562 59.2136 66.8192C58.9876 66.9823 58.7161 67.0701 58.4375 67.0703Z" fill="#2F2B78"/>
<path d="M62.4219 63.0859H59.7656C59.4134 63.0859 59.0756 62.946 58.8265 62.6969C58.5774 62.4479 58.4375 62.1101 58.4375 61.7578C58.4375 61.4056 58.5774 61.0678 58.8265 60.8187C59.0756 60.5696 59.4134 60.4297 59.7656 60.4297H62.4219C62.7741 60.4297 63.1119 60.5696 63.361 60.8187C63.6101 61.0678 63.75 61.4056 63.75 61.7578C63.75 62.1101 63.6101 62.4479 63.361 62.6969C63.1119 62.946 62.7741 63.0859 62.4219 63.0859Z" fill="#2F2B78"/>
<path d="M65.0774 65.7422C64.903 65.7424 64.7303 65.7081 64.5691 65.6413C64.408 65.5745 64.2616 65.4766 64.1384 65.3531L61.4822 62.6968C61.2403 62.4463 61.1064 62.1108 61.1094 61.7626C61.1125 61.4144 61.2521 61.0813 61.4984 60.835C61.7446 60.5888 62.0777 60.4491 62.426 60.4461C62.7742 60.443 63.1097 60.5769 63.3602 60.8188L66.0164 63.4751C66.2021 63.6608 66.3285 63.8975 66.3798 64.155C66.431 64.4126 66.4047 64.6796 66.3042 64.9223C66.2037 65.1649 66.0335 65.3723 65.8151 65.5183C65.5968 65.6642 65.3401 65.7421 65.0774 65.7422Z" fill="#2F2B78"/>
<path d="M67.7326 67.0703C67.5271 67.0703 67.3243 67.0225 67.1403 66.9309L64.484 65.6027C64.1688 65.4453 63.929 65.1691 63.8174 64.8348C63.7058 64.5005 63.7316 64.1357 63.889 63.8204C64.0465 63.5051 64.3227 63.2653 64.657 63.1538C64.9912 63.0422 65.3561 63.0679 65.6714 63.2254L68.3276 64.5535C68.5956 64.6871 68.8106 64.9073 68.9377 65.1784C69.0648 65.4495 69.0966 65.7557 69.0278 66.0471C68.9591 66.3385 68.7939 66.5982 68.559 66.7839C68.3241 66.9697 68.0334 67.0706 67.734 67.0703H67.7326Z" fill="#2F2B78"/>
<path d="M67.735 67.0703C67.4354 67.0709 67.1445 66.9702 66.9094 66.7846C66.6743 66.5989 66.5088 66.3393 66.4399 66.0478C66.371 65.7562 66.4027 65.45 66.5298 65.1787C66.6568 64.9075 66.8719 64.6871 67.14 64.5535L69.7963 63.2254C70.1115 63.0679 70.4764 63.0422 70.8106 63.1538C70.9762 63.209 71.1292 63.2963 71.2609 63.4107C71.3927 63.5251 71.5006 63.6643 71.5786 63.8204C71.6566 63.9765 71.703 64.1464 71.7153 64.3205C71.7276 64.4945 71.7055 64.6693 71.6502 64.8348C71.595 65.0003 71.5077 65.1533 71.3933 65.2851C71.2789 65.4168 71.1397 65.5248 70.9836 65.6027L68.3273 66.9309C68.1433 67.0225 67.9406 67.0703 67.735 67.0703Z" fill="#2F2B78"/>
<path d="M70.3906 68.3984C70.0384 68.3984 69.7006 68.2585 69.4515 68.0094C69.2024 67.7604 69.0625 67.4226 69.0625 67.0703V64.4141C69.0625 64.0618 69.2024 63.724 69.4515 63.4749C69.7006 63.2259 70.0384 63.0859 70.3906 63.0859C70.7429 63.0859 71.0807 63.2259 71.3298 63.4749C71.5788 63.724 71.7188 64.0618 71.7188 64.4141V67.0703C71.7188 67.4226 71.5788 67.7604 71.3298 68.0094C71.0807 68.2585 70.7429 68.3984 70.3906 68.3984Z" fill="#2F2B78"/>
<path d="M69.0605 71.1198C68.8587 71.12 68.6597 71.0736 68.4788 70.9843C68.1623 70.8298 67.9202 70.5559 67.8057 70.2229C67.6911 69.8899 67.7135 69.5251 67.8678 69.2086L69.196 66.4886C69.2702 66.3282 69.3757 66.1843 69.5062 66.0653C69.6368 65.9462 69.7898 65.8544 69.9563 65.7952C70.1228 65.736 70.2994 65.7107 70.4758 65.7206C70.6522 65.7305 70.8249 65.7756 70.9837 65.8531C71.1424 65.9306 71.2842 66.039 71.4005 66.1719C71.5169 66.3049 71.6056 66.4597 71.6614 66.6274C71.7171 66.795 71.7389 66.9721 71.7254 67.1483C71.7119 67.3245 71.6633 67.4962 71.5826 67.6533L70.2545 70.3733C70.1455 70.5973 69.9758 70.786 69.7647 70.918C69.5535 71.05 69.3095 71.1199 69.0605 71.1198Z" fill="#2F2B78"/>
<path d="M74.3733 73.7109C74.1716 73.7109 73.9726 73.6645 73.7916 73.5755L68.4791 70.9856C68.1624 70.831 67.9202 70.5569 67.8056 70.2236C67.691 69.8904 67.7135 69.5252 67.8682 69.2086C68.0228 68.8919 68.2969 68.6496 68.6301 68.5351C68.9634 68.4205 69.3285 68.443 69.6452 68.5976L74.9577 71.1901C75.2272 71.3222 75.444 71.5416 75.5728 71.8127C75.7017 72.0837 75.7349 72.3904 75.6671 72.6827C75.5994 72.9751 75.4346 73.2359 75.1996 73.4226C74.9647 73.6093 74.6734 73.7109 74.3733 73.7109Z" fill="#2F2B78"/>
<path d="M74.375 73.6259C74.0228 73.6259 73.6849 73.486 73.4359 73.2369C73.1868 72.9879 73.0469 72.6501 73.0469 72.2978V61.7578C73.0469 61.4056 73.1868 61.0678 73.4359 60.8187C73.6849 60.5696 74.0228 60.4297 74.375 60.4297C74.7272 60.4297 75.0651 60.5696 75.3141 60.8187C75.5632 61.0678 75.7031 61.4056 75.7031 61.7578V72.2978C75.7031 72.6501 75.5632 72.9879 75.3141 73.2369C75.0651 73.486 74.7272 73.6259 74.375 73.6259Z" fill="#2F2B78"/>
<path d="M74.3759 63.0859C74.1289 63.0863 73.8866 63.0178 73.6764 62.888C73.4662 62.7583 73.2963 62.5725 73.1859 62.3515L70.5297 57.039C70.3722 56.7237 70.3464 56.3588 70.458 56.0246C70.5696 55.6903 70.8094 55.4141 71.1247 55.2566C71.4399 55.0992 71.8048 55.0734 72.1391 55.185C72.4733 55.2966 72.7495 55.5364 72.907 55.8516L75.5633 61.1641C75.6645 61.3667 75.7122 61.5917 75.702 61.8179C75.6917 62.0441 75.6238 62.2639 75.5047 62.4565C75.3856 62.649 75.2193 62.8079 75.0215 62.9181C74.8237 63.0283 74.601 63.086 74.3746 63.0859H74.3759Z" fill="#2F2B78"/>
<path d="M71.7188 57.7734H69.0625C68.7103 57.7734 68.3724 57.6335 68.1234 57.3844C67.8743 57.1354 67.7344 56.7976 67.7344 56.4453C67.7344 56.0931 67.8743 55.7553 68.1234 55.5062C68.3724 55.2571 68.7103 55.1172 69.0625 55.1172H71.7188C72.071 55.1172 72.4088 55.2571 72.6579 55.5062C72.9069 55.7553 73.0469 56.0931 73.0469 56.4453C73.0469 56.7976 72.9069 57.1354 72.6579 57.3844C72.4088 57.6335 72.071 57.7734 71.7188 57.7734Z" fill="#2F2B78"/>
<path d="M69.0637 57.7734C68.8621 57.7731 68.6631 57.7269 68.482 57.6384C68.3008 57.5498 68.1421 57.4212 68.018 57.2623C67.8939 57.1034 67.8075 56.9183 67.7655 56.721C67.7235 56.5238 67.7269 56.3196 67.7754 56.1239L69.1036 50.8114C69.1996 50.4818 69.4195 50.2021 69.7172 50.0311C70.0149 49.8601 70.3672 49.8111 70.7003 49.8942C71.0334 49.9774 71.3214 50.1863 71.5038 50.4771C71.6862 50.768 71.749 51.1181 71.6788 51.4542L70.3507 56.7667C70.2792 57.0543 70.1135 57.3096 69.88 57.4921C69.6465 57.6745 69.3587 57.7736 69.0624 57.7734H69.0637Z" fill="#2F2B78"/>
<path d="M70.3912 52.4609C70.0917 52.4615 69.8007 52.3608 69.5656 52.1752C69.3305 51.9896 69.1651 51.7299 69.0962 51.4384C69.0273 51.1469 69.0589 50.8406 69.186 50.5694C69.3131 50.2981 69.5281 50.0778 69.7963 49.9441L75.1087 47.2879C75.424 47.1304 75.7889 47.1047 76.1231 47.2163C76.4574 47.3278 76.7336 47.5676 76.8911 47.8829C77.0485 48.1982 77.0743 48.563 76.9627 48.8973C76.8511 49.2316 76.6113 49.5078 76.2961 49.6652L70.9836 52.3215C70.7996 52.4131 70.5968 52.4609 70.3912 52.4609Z" fill="#2F2B78"/>
<path d="M75.7031 49.8047C75.4928 49.8045 75.2855 49.7544 75.0983 49.6585C74.9111 49.5625 74.7494 49.4235 74.6265 49.2528C74.5035 49.0822 74.4229 48.8848 74.3912 48.6768C74.3594 48.4689 74.3776 48.2564 74.444 48.0569L75.7722 44.0725C75.8222 43.901 75.9063 43.7413 76.0195 43.6031C76.1326 43.4648 76.2725 43.3509 76.4308 43.2679C76.589 43.185 76.7624 43.1349 76.9404 43.1205C77.1185 43.1062 77.2977 43.1279 77.4671 43.1844C77.6366 43.2409 77.793 43.331 77.9268 43.4493C78.0607 43.5677 78.1693 43.7118 78.2461 43.8731C78.323 44.0343 78.3665 44.2095 78.3741 44.388C78.3817 44.5665 78.3532 44.7447 78.2903 44.9119L76.9622 48.8962C76.8741 49.1606 76.7052 49.3906 76.4792 49.5536C76.2532 49.7166 75.9817 49.8045 75.7031 49.8047ZM82.3437 55.1172C82.1693 55.1174 81.9965 55.0831 81.8354 55.0163C81.6743 54.9495 81.5279 54.8516 81.4047 54.728L77.4204 50.7437C77.1784 50.4932 77.0446 50.1577 77.0476 49.8095C77.0506 49.4612 77.1903 49.1281 77.4365 48.8819C77.6828 48.6356 78.0159 48.496 78.3641 48.4929C78.7124 48.4899 79.0478 48.6238 79.2983 48.8657L83.2827 52.8501C83.4684 53.0358 83.5948 53.2724 83.6461 53.53C83.6973 53.7876 83.671 54.0546 83.5705 54.2973C83.47 54.5399 83.2998 54.7473 83.0814 54.8933C82.8631 55.0392 82.6064 55.1171 82.3437 55.1172Z" fill="#2F2B78"/>
<path d="M78.358 51.1328C78.062 51.1327 77.7744 51.0335 77.5412 50.8511C77.308 50.6686 77.1425 50.4134 77.0711 50.1261L75.743 44.8136C75.6668 44.4751 75.7261 44.1203 75.9082 43.825C76.0902 43.5297 76.3806 43.3174 76.7172 43.2334C77.0538 43.1494 77.4099 43.2005 77.7093 43.3757C78.0088 43.5508 78.2278 43.8362 78.3195 44.1708L79.6477 49.4833C79.6962 49.6791 79.6996 49.8834 79.6575 50.0808C79.6154 50.2781 79.5289 50.4632 79.4047 50.6222C79.2804 50.7811 79.1216 50.9097 78.9402 50.9982C78.7589 51.0867 78.5598 51.1327 78.358 51.1328ZM45.1562 57.7734C44.8458 57.7737 44.545 57.6651 44.3063 57.4666C43.6342 56.9075 27.8906 43.613 27.8906 28.5547C27.8906 23.9756 29.7097 19.584 32.9476 16.346C36.1855 13.1081 40.5771 11.2891 45.1562 11.2891C49.7354 11.2891 54.127 13.1081 57.3649 16.346C60.6028 19.584 62.4219 23.9756 62.4219 28.5547C62.4219 43.613 46.677 56.9075 46.0062 57.4666C45.7675 57.6651 45.4667 57.7737 45.1562 57.7734ZM45.1562 13.9453C41.2829 13.9495 37.5694 15.4901 34.8305 18.229C32.0916 20.9678 30.5511 24.6813 30.5469 28.5547C30.5469 40.4733 41.9156 51.7119 45.1562 54.6709C48.3942 51.7092 59.7656 40.456 59.7656 28.5547C59.7614 24.6813 58.2209 20.9678 55.482 18.229C52.7431 15.4901 49.0296 13.9495 45.1562 13.9453Z" fill="#2F2B78"/>
<path d="M45.1563 37.8516C43.3175 37.8516 41.5201 37.3063 39.9912 36.2848C38.4623 35.2632 37.2707 33.8112 36.5671 32.1125C35.8634 30.4137 35.6793 28.5444 36.038 26.741C36.3967 24.9375 37.2822 23.281 38.5824 21.9808C39.8826 20.6806 41.5391 19.7952 43.3425 19.4365C45.1459 19.0777 47.0152 19.2618 48.714 19.9655C50.4128 20.6692 51.8648 21.8608 52.8863 23.3896C53.9079 24.9185 54.4531 26.7159 54.4531 28.5547C54.4503 31.0195 53.4699 33.3826 51.727 35.1255C49.9841 36.8684 47.6211 37.8488 45.1563 37.8516ZM45.1563 21.9141C43.8429 21.9141 42.559 22.3035 41.4669 23.0332C40.3749 23.7629 39.5237 24.8 39.0211 26.0134C38.5185 27.2268 38.387 28.5621 38.6432 29.8502C38.8995 31.1384 39.5319 32.3216 40.4606 33.2503C41.3893 34.179 42.5726 34.8115 43.8607 35.0677C45.1489 35.3239 46.4841 35.1924 47.6975 34.6898C48.9109 34.1872 49.9481 33.3361 50.6777 32.244C51.4074 31.152 51.7969 29.8681 51.7969 28.5547C51.7948 26.7941 51.0945 25.1063 49.8496 23.8614C48.6047 22.6165 46.9168 21.9162 45.1563 21.9141Z" fill="#2F2B78"/>
</g>
<defs>
<clipPath id="clip0_557_2402">
<rect width="85" height="85" fill="white"/>
</clipPath>
</defs>
</svg>
