<svg width="63" height="36" viewBox="0 0 63 36" fill="none" xmlns="http://www.w3.org/2000/svg">
<path d="M63 18L58.3281 25.695L54 33.5885L45 33.39L36 33.5885L31.6719 25.695L27 18L31.6719 10.305L36 2.41154L45 2.61L54 2.41154L58.3281 10.305L63 18Z" fill="black"/>
<path d="M49 18L44.4579 25.695L40.25 33.5885L31.5 33.39L22.75 33.5885L18.5421 25.695L14 18L18.5421 10.305L22.75 2.41154L31.5 2.61L40.25 2.41154L44.4579 10.305L49 18Z" fill="#B2B2B2"/>
<path d="M36 18L31.3281 25.695L27 33.5885L18 33.39L9 33.5885L4.67187 25.695L0 18L4.67187 10.305L9 2.41154L18 2.61L27 2.41154L31.3281 10.305L36 18Z" fill="#FFDD00"/>
</svg>
