<svg width="45" height="45" viewBox="0 0 45 45" fill="none" xmlns="http://www.w3.org/2000/svg">
<path d="M22.5 23.9688C20.7571 23.9688 19.0532 23.4519 17.604 22.4836C16.1548 21.5152 15.0253 20.1389 14.3583 18.5287C13.6913 16.9184 13.5168 15.1465 13.8568 13.437C14.1969 11.7276 15.0362 10.1573 16.2686 8.92488C17.5011 7.69243 19.0713 6.85312 20.7808 6.51308C22.4902 6.17305 24.2621 6.34757 25.8724 7.01457C27.4827 7.68156 28.859 8.81108 29.8273 10.2603C30.7957 11.7095 31.3125 13.4133 31.3125 15.1563C31.3125 17.4935 30.384 19.735 28.7314 21.3876C27.0787 23.0403 24.8372 23.9688 22.5 23.9688ZM22.5 9.28125C21.338 9.28125 20.2022 9.62582 19.236 10.2714C18.2699 10.9169 17.5169 11.8345 17.0722 12.908C16.6275 13.9815 16.5112 15.1628 16.7379 16.3024C16.9646 17.442 17.5241 18.4889 18.3458 19.3105C19.1674 20.1321 20.2142 20.6917 21.3538 20.9184C22.4935 21.1451 23.6748 21.0287 24.7483 20.584C25.8218 20.1394 26.7393 19.3864 27.3849 18.4202C28.0304 17.4541 28.375 16.3182 28.375 15.1563C28.375 13.5981 27.756 12.1038 26.6543 11.002C25.5525 9.90023 24.0582 9.28125 22.5 9.28125Z" fill="#E0B117"/>
<path d="M22.5004 44.5313C19.2434 44.5291 16.0273 43.8048 13.0838 42.4105C10.1403 41.0162 7.54258 38.9866 5.47762 36.4679L4.71387 35.5279L5.47762 34.6026C7.54432 32.0871 10.1428 30.0609 13.0863 28.6697C16.0297 27.2785 19.2448 26.557 22.5004 26.557C25.756 26.557 28.9712 27.2785 31.9146 28.6697C34.858 30.0609 37.4565 32.0871 39.5232 34.6026L40.287 35.5279L39.5232 36.4679C37.4583 38.9866 34.8605 41.0162 31.917 42.4105C28.9735 43.8048 25.7575 44.5291 22.5004 44.5313ZM8.56199 35.5426C10.3483 37.4549 12.5087 38.9796 14.909 40.0221C17.3093 41.0645 19.8982 41.6024 22.5151 41.6024C25.132 41.6024 27.7209 41.0645 30.1212 40.0221C32.5215 38.9796 34.6819 37.4549 36.4682 35.5426C34.6819 33.6302 32.5215 32.1055 30.1212 31.063C27.7209 30.0206 25.132 29.4827 22.5151 29.4827C19.8982 29.4827 17.3093 30.0206 14.909 31.063C12.5087 32.1055 10.3483 33.6302 8.56199 35.5426Z" fill="#E0B117"/>
<path d="M22.5001 44.5313C17.4957 44.5346 12.6392 42.8341 8.73007 39.7095C4.82092 36.585 2.092 32.2227 0.992469 27.3406C-0.107065 22.4585 0.488304 17.3475 2.68059 12.8488C4.87287 8.35012 8.53142 4.73187 13.0541 2.58955C17.5768 0.447227 22.694 -0.0914946 27.5637 1.06205C32.4333 2.21559 36.7652 4.99266 39.8462 8.93618C42.9272 12.8797 44.5739 17.7547 44.5151 22.7587C44.4563 27.7628 42.6957 32.5978 39.5229 36.4678C37.4579 38.9866 34.8602 41.0162 31.9167 42.4105C28.9731 43.8048 25.7571 44.5291 22.5001 44.5313ZM22.5001 3.40627C18.7237 3.40627 15.0321 4.52609 11.8921 6.62414C8.75219 8.72219 6.3049 11.7042 4.85974 15.1932C3.41457 18.6821 3.03645 22.5212 3.77319 26.225C4.50993 29.9288 6.32843 33.331 8.99874 36.0013C11.669 38.6716 15.0712 40.4901 18.7751 41.2269C22.4789 41.9636 26.318 41.5855 29.8069 40.1403C33.2958 38.6952 36.2779 36.2479 38.3759 33.1079C40.474 29.968 41.5938 26.2764 41.5938 22.5C41.5938 17.436 39.5822 12.5795 36.0014 8.9987C32.4206 5.41792 27.564 3.40627 22.5001 3.40627Z" fill="#E0B117"/>
<path d="M6.6084 35.5425C6.6084 35.5425 21.3987 52.066 36.4534 37.1875L38.3922 35.5425C38.3922 35.5425 25.8196 22.5 13.0562 30.3285L6.6084 35.5425Z" fill="#E0B117"/>
<path d="M22.5 22.5C26.5558 22.5 29.8438 19.2121 29.8438 15.1562C29.8438 11.1004 26.5558 7.8125 22.5 7.8125C18.4442 7.8125 15.1562 11.1004 15.1562 15.1562C15.1562 19.2121 18.4442 22.5 22.5 22.5Z" fill="#E0B117"/>
</svg>
